<?xml version='1.0' encoding='iso-8859-1'?>
<svg version="1.1" xmlns="http://www.w3.org/2000/svg" viewBox="0 0 329.983 329.983" xmlns:xlink="http://www.w3.org/1999/xlink" enable-background="new 0 0 329.983 329.983">
  <g>
    <path d="m175.426,1.282c-2.472,0-4.784,1.217-6.183,3.255-4.089,5.955-100.145,146.668-100.145,217.837 0,58.629 47.698,106.327 106.327,106.327s106.326-47.698 106.326-106.327c0-71.169-96.055-211.882-100.144-217.837-1.397-2.037-3.71-3.255-6.181-3.255zm0,312.419c-50.358,0-91.327-40.969-91.327-91.327 0-56.606 69.872-167.393 91.327-200.073 21.455,32.68 91.326,143.466 91.326,200.073 5.68434e-14,50.358-40.969,91.327-91.326,91.327z" fill="currentColor"/>
    <path d="m167.927,286.199c0,4.142 3.357,7.5 7.5,7.5 39.33,0 71.328-31.996 71.328-71.323 0-4.142-3.357-7.5-7.5-7.5s-7.5,3.358-7.5,7.5c0,31.057-25.269,56.323-56.328,56.323-4.143,0-7.5,3.358-7.5,7.5z" fill="currentColor"/>
    <path d="m322.483,31.658h-14.574v-14.575c0-4.142-3.357-7.5-7.5-7.5s-7.5,3.358-7.5,7.5v14.575h-14.575c-4.143,0-7.5,3.358-7.5,7.5s3.357,7.5 7.5,7.5h14.575v14.575c0,4.142 3.357,7.5 7.5,7.5s7.5-3.358 7.5-7.5v-14.575h14.574c4.143,0 7.5-3.358 7.5-7.5s-3.357-7.5-7.5-7.5z" fill="currentColor"/>
    <path d="m51.65,257.492h-14.575v-14.575c0-4.142-3.357-7.5-7.5-7.5s-7.5,3.358-7.5,7.5v14.575h-14.575c-4.143,0-7.5,3.358-7.5,7.5s3.357,7.5 7.5,7.5h14.575v14.575c0,4.142 3.357,7.5 7.5,7.5s7.5-3.358 7.5-7.5v-14.575h14.575c4.143,0 7.5-3.358 7.5-7.5s-3.357-7.5-7.5-7.5z" fill="currentColor"/>
  </g>
</svg>
