<?xml version="1.0" encoding="iso-8859-1"?>
<!-- Generator: Adobe Illustrator 19.0.0, SVG Export Plug-In . SVG Version: 6.00 Build 0)  -->
<svg version="1.1" id="Layer_1" xmlns="http://www.w3.org/2000/svg" xmlns:xlink="http://www.w3.org/1999/xlink" x="0px" y="0px"
	 viewBox="0 0 512 512" style="enable-background:new 0 0 512 512;" xml:space="preserve">
<g>
	<g>
		<g>
			<path d="M143.595,189.501c-3.52-1.813-7.744-1.557-11.029,0.704l-128,89.045c-0.171,0.128-0.192,0.363-0.363,0.491
				c-1.536,1.216-2.773,2.731-3.456,4.608c-0.107,0.299-0.085,0.576-0.171,0.875C0.32,286.099,0,286.995,0,287.997v213.333
				c0,5.888,4.779,10.667,10.667,10.667h128c5.888,0,10.667-4.779,10.667-10.667V198.952
				C149.333,194.984,147.115,191.336,143.595,189.501z M128,437.331c0,5.888-4.779,10.667-10.667,10.667H32
				c-5.888,0-10.667-4.779-10.667-10.667v-64c0-29.397,23.936-53.333,53.333-53.333S128,343.933,128,373.331V437.331z" fill="currentColor"/>
			<path d="M511.424,285.181c-0.085-0.299-0.064-0.576-0.171-0.875c-0.683-1.877-1.92-3.392-3.456-4.608
				c-0.171-0.128-0.192-0.363-0.363-0.491l-128-89.045c-3.243-2.261-7.509-2.517-11.029-0.704c-3.52,1.877-5.739,5.525-5.739,9.493
				v302.379c0,5.888,4.779,10.667,10.667,10.667h128c5.888,0,10.667-4.779,10.667-10.667V287.997
				C512,286.995,511.68,286.099,511.424,285.181z M490.667,437.331c0,5.888-4.779,10.667-10.667,10.667h-85.333
				c-5.888,0-10.667-4.779-10.667-10.667v-64c0-29.397,23.936-53.333,53.333-53.333s53.333,23.936,53.333,53.333V437.331z" fill="currentColor"/>
			<path d="M333.589,21.736L258.923,0.403c-1.92-0.533-3.947-0.533-5.845,0l-74.667,21.333c-4.587,1.323-7.744,5.504-7.744,10.261
				v469.333c0,5.888,4.779,10.667,10.667,10.667h149.333c5.888,0,10.667-4.779,10.667-10.667V31.997
				C341.333,27.24,338.176,23.059,333.589,21.736z M298.667,394.664c0,5.888-4.779,10.667-10.667,10.667h-64
				c-5.888,0-10.667-4.779-10.667-10.667v-74.667c0-23.531,19.136-42.667,42.667-42.667s42.667,19.136,42.667,42.667V394.664z
				 M298.667,223.997c0,5.888-4.779,10.667-10.667,10.667h-64c-5.888,0-10.667-4.779-10.667-10.667v-74.667
				c0-23.531,19.136-42.667,42.667-42.667s42.667,19.136,42.667,42.667V223.997z" fill="currentColor"/>
		</g>
	</g>
</g>
<g>
</g>
<g>
</g>
<g>
</g>
<g>
</g>
<g>
</g>
<g>
</g>
<g>
</g>
<g>
</g>
<g>
</g>
<g>
</g>
<g>
</g>
<g>
</g>
<g>
</g>
<g>
</g>
<g>
</g>
</svg>
