<?xml version="1.0" encoding="iso-8859-1"?>
<!-- Generator: Adobe Illustrator 19.0.0, SVG Export Plug-In . SVG Version: 6.00 Build 0)  -->
<svg version="1.1" id="Capa_1" xmlns="http://www.w3.org/2000/svg" xmlns:xlink="http://www.w3.org/1999/xlink" x="0px" y="0px"
	 viewBox="0 0 490 490" style="enable-background:new 0 0 490 490;" xml:space="preserve">
<g>
	<g>
		<path d="M213.4,370.2c-56-14.1-97.5-64.8-97.5-125.2c0-8.6,0.9-17,2.5-25.2L12,169.3C4.3,193.1,0,218.6,0,245
			c0,124.6,93,227.4,213.4,242.9V370.2z" fill="currentColor"/>
		<path d="M276.6,119.8c56,14.1,97.5,64.8,97.5,125.2s-41.5,111.1-97.5,125.2v117.7C397,472.4,490,369.6,490,245S397,17.6,276.6,2.1
			V119.8z" fill="currentColor"/>
		<path d="M145.5,162.7c17.2-20.8,40.9-36.1,67.9-42.9V2.1c-73.1,9.4-136,51-174.2,110.1L145.5,162.7z" fill="currentColor"/>
	</g>
</g>
<g>
</g>
<g>
</g>
<g>
</g>
<g>
</g>
<g>
</g>
<g>
</g>
<g>
</g>
<g>
</g>
<g>
</g>
<g>
</g>
<g>
</g>
<g>
</g>
<g>
</g>
<g>
</g>
<g>
</g>
</svg>
