<svg xmlns="http://www.w3.org/2000/svg" xmlns:xlink="http://www.w3.org/1999/xlink" version="1.1" style="enable-background:new 0 0 490.01 490.01;" xml:space="preserve" width="490.010009765625" height="490.010009765625"><rect id="backgroundrect" width="100%" height="100%" x="0" y="0" fill="none" stroke="none"/>
















<g class="currentLayer" style=""><title>Layer 1</title><path d="M487.441,338.212c-72.595-85.706-127.154-205.297-147.957-329.58c-0.601-3.584-5.781-12.605-16.497-6.65L141.649,136.55  c-3.146,2.331-4.714,6.232-4.073,10.091c2.893,17.275,10.071,50.839,9.92,50.61L3.742,313.611  c-6.136,5.305-3.268,12.556-1.517,14.704c63.45,77.726,167.805,135.067,293.828,161.47c0.713,0.153,1.436,0.225,2.139,0.225  c2.296,0,4.512-0.764,6.315-2.134L485.74,353.385C489.139,351.415,492.459,344.136,487.441,338.212z M25.137,323.122  l128.251-103.814c0.584,2.176,1.163,4.352,1.765,6.519c0.04-0.06,0.086-0.116,0.127-0.176  c24.671,88.312,64.949,170.763,115.622,236.846C168.247,435.978,80.338,386.246,25.137,323.122z M299.846,465.363  c-58.168-70.286-103.689-162.761-128.929-262.006c-0.008,0.004-0.016,0.008-0.024,0.012c-4.555-17.803-8.471-35.796-11.667-53.896  L321.898,28.753c22.677,119.365,72.818,230.073,142.509,314.5L299.846,465.363z" fill="currentColor" id="svg_1" class="selected" fill-opacity="1"/><g id="svg_2">
</g><g id="svg_3">
</g><g id="svg_4">
</g><g id="svg_5">
</g><g id="svg_6">
</g><g id="svg_7">
</g><g id="svg_8">
</g><g id="svg_9">
</g><g id="svg_10">
</g><g id="svg_11">
</g><g id="svg_12">
</g><g id="svg_13">
</g><g id="svg_14">
</g><g id="svg_15">
</g><g id="svg_16">
</g>
<polyline
fill="currentColor"
 stroke="#ffffff"
  stroke-width="10"
   stroke-dashoffset="" 
   fill-rule="nonzero"
    opacity="0"
    marker-start=""
    marker-mid=""
    marker-end=""
    id="svg_17"
    points="202.75147114329428,370.19316067799514 202.75147114329428,370.19316067799514 202.75147114329428,371.60161130654717 203.45569645757024,373.71428724937505 204.15992177184617,377.2354138207549 206.27259771467408,382.86921633496263 207.68104834322605,388.50301884917036 209.08949897177797,393.43259604910213 210.4979496003299,396.95372262048187 211.20217491460585,400.47484919186184 211.90640022888178,403.99597576324163 213.31485085743378,407.5171023346214 214.01907617170974,411.0382289060012 214.7233014859857,414.5593554773811 216.1317521145376,417.37625673448497 216.83597742881358,420.19315799158886 218.24442805736555,423.0100592486927 218.9486533716415,425.1227351915206 219.65287868591747,427.23541113434857 221.0613293144694,428.6438617629004 221.76555462874535,429.34808707717633 223.17400525729732,430.7565377057283 224.5824558858492,431.4607630200043 225.99090651440116,432.1649883342803 227.39935714295308,433.5734389628322 228.80780777150508,434.27766427710816 230.21625840005697,434.27766427710816 231.6247090286089,434.9818895913842 232.32893434288488,434.9818895913842 " style="color: rgb(0, 0, 0);"/><polyline fill="#000000" stroke="#ffffff" stroke-width="10" stroke-dashoffset="" fill-rule="nonzero" opacity="0" marker-start="" marker-mid="" marker-end="" id="svg_18" points="232.32893434288488,438.50301616276397 233.0331596571608,438.50301616276397 234.44161028571278,438.50301616276397 237.96273685709258,437.09456553421205 242.1880887427484,435.6861149056601 " style="color: rgb(0, 0, 0);"/><polyline fill="#000000" stroke="#000000" stroke-width="20" stroke-dashoffset="" fill-rule="nonzero" marker-start="" marker-mid="" marker-end="" id="svg_19" points="291.48386074206604,443.4325933626958 291.48386074206604,443.4325933626958 291.48386074206604,444.84104399124766 292.188086056342,446.2494946197996 292.89231137061796,448.3621705626275 294.30076199916994,450.4748465054554 295.0049873134459,452.58752244828327 295.0049873134459,453.9959730768352 295.70921262772185,455.40442370538716 295.70921262772185,456.1086490196631 296.4134379419978,456.81287433393913 296.4134379419978,457.51709964821504 297.1176632562738,458.221324962491 297.1176632562738,458.925550276767 297.1176632562738,459.629775591043 297.1176632562738,459.629775591043 297.1176632562738,460.33400090531893 297.1176632562738,460.33400090531893 297.1176632562738,460.33400090531893 297.1176632562738,460.33400090531893 297.1176632562738,460.33400090531893 297.1176632562738,460.33400090531893 297.1176632562738,459.629775591043 297.1176632562738,459.629775591043 297.1176632562738,458.925550276767 297.1176632562738,458.925550276767 297.1176632562738,458.221324962491 296.4134379419978,458.221324962491 296.4134379419978,458.221324962491 296.4134379419978,458.221324962491 296.4134379419978,457.51709964821504 295.70921262772185,457.51709964821504 295.0049873134459,457.51709964821504 295.0049873134459,457.51709964821504 294.30076199916994,457.51709964821504 294.30076199916994,457.51709964821504 294.30076199916994,457.51709964821504 294.30076199916994,458.221324962491 294.30076199916994,458.925550276767 294.30076199916994,459.629775591043 294.30076199916994,460.33400090531893 294.30076199916994,461.0382262195949 294.30076199916994,461.7424515338708 294.30076199916994,461.7424515338708 294.30076199916994,462.4466768481468 295.0049873134459,462.4466768481468 295.0049873134459,463.15090216242277 295.0049873134459,463.15090216242277 295.0049873134459,463.15090216242277 295.0049873134459,463.15090216242277 295.0049873134459,463.8551274766987 295.0049873134459,463.8551274766987 295.0049873134459,463.8551274766987 295.0049873134459,463.8551274766987 295.0049873134459,463.8551274766987 295.70921262772185,463.8551274766987 295.70921262772185,463.8551274766987 295.70921262772185,463.8551274766987 296.4134379419978,463.8551274766987 296.4134379419978,463.15090216242277 297.1176632562738,463.15090216242277 297.82188857054973,462.4466768481468 298.5261138848257,462.4466768481468 299.23033919910165,461.7424515338708 300.6387898276536,460.33400090531893 302.7514657704815,459.629775591043 304.8641417133094,458.221324962491 306.27259234186135,456.1086490196631 308.38526828468923,454.7001983911112 310.49794422751717,453.2917477625593 311.2021695417931,451.8832971340073 312.61062017034504,450.4748465054554 314.01907079889696,449.0663958769035 314.7232961131729,447.65794524835155 316.1317467417249,446.2494946197996 317.5401973702768,444.84104399124766 318.94864799882873,444.1368186769717 320.35709862738065,443.4325933626958 321.0613239416566,442.7283680484198 321.7655492559326,442.02414273414377 323.17399988448454,441.3199174198678 323.8782251987605,440.6156921055919 324.58245051303646,439.9114667913159 325.2866758273124,439.20724147703993 325.9909011415884,439.20724147703993 325.9909011415884,438.50301616276397 326.69512645586434,437.79879084848795 327.3993517701403,437.79879084848795 328.10357708441626,437.09456553421205 328.8078023986922,437.09456553421205 329.5120277129683,436.39034021993604 330.21625302724425,435.6861149056601 330.9204783415202,434.9818895913842 332.3289289700721,434.9818895913842 333.0331542843481,434.27766427710816 333.73737959862405,433.5734389628322 335.14583022717596,432.8692136485563 335.8500555414519,432.1649883342803 336.5542808557279,432.1649883342803 337.9627314842798,431.4607630200043 338.66695679855576,430.7565377057283 339.3711821128317,430.05231239145235 340.0754074271077,429.34808707717633 340.77963274138375,429.34808707717633 340.77963274138375,429.34808707717633 340.77963274138375,429.34808707717633 340.77963274138375,430.05231239145235 340.77963274138375,430.7565377057283 340.77963274138375,430.7565377057283 340.77963274138375,431.4607630200043 340.0754074271077,432.1649883342803 340.0754074271077,432.1649883342803 339.3711821128317,432.8692136485563 339.3711821128317,432.8692136485563 340.0754074271077,432.1649883342803 341.4838580556597,431.4607630200043 343.5965339984876,430.7565377057283 345.0049846270395,429.34808707717633 346.4134352555914,428.6438617629004 347.82188588414334,427.23541113434857 349.23033651269526,425.8269605057966 349.9345618269712,425.1227351915206 351.34301245552325,423.71428456296866 352.0472377697992,421.6016086201407 353.4556883983511,420.19315799158886 354.86413902690305,418.78470736303683 356.9768149697309,417.37625673448497 358.38526559828284,415.96780610593305 359.79371622683476,413.8551301631051 361.90639216966264,412.4466795345532 364.01906811249063,411.0382289060012 366.1317440553185,408.92555296317335 368.2444199981464,407.5171023346214 369.65287062669825,405.4044263917935 371.7655465695262,403.99597576324163 373.1739971980781,402.5875251346896 374.58244782663013,401.17907450613774 376.695123769458,399.7706238775858 378.10357439800987,399.06639856330986 378.8077997122859,398.3621732490339 380.2162503408378,396.95372262048187 381.6247009693897,396.24949730620597 382.3289262836657,395.54527199193 383.0331515979417,395.54527199193 384.4416022264937,394.841046677654 385.14582754076963,394.1368213633781 385.8500528550456,393.43259604910213 386.5542781693215,393.43259604910213 387.2585034835975,392.7283707348261 387.96272879787347,392.0241454205502 388.6669541121494,391.3199201062742 389.3711794264254,391.3199201062742 389.3711794264254,390.61569479199824 390.07540474070134,390.61569479199824 390.07540474070134,390.61569479199824 390.07540474070134,390.61569479199824 390.07540474070134,390.61569479199824 390.07540474070134,390.61569479199824 390.07540474070134,391.3199201062742 390.07540474070134,391.3199201062742 390.07540474070134,391.3199201062742 390.07540474070134,391.3199201062742 390.7796300549773,391.3199201062742 390.7796300549773,391.3199201062742 392.1880806835292,390.61569479199824 393.5965313120811,389.9114694777223 395.00498194063306,389.20724416344626 396.4134325691851,387.7987935348944 399.93455914056494,384.2776669635146 402.0472350833927,382.16499102068667 404.1599110262206,380.7565403921347 406.27258696904863,378.64386444930676 409.08948822615247,377.2354138207549 411.20216416898035,375.12273787792697 413.3148401118082,373.71428724937505 415.42751605463616,371.60161130654717 416.835966683188,370.19316067799514 418.24441731174005,368.7847100494433 419.65286794029197,368.0804847351674 421.06131856884383,367.37625942089136 421.76554388311985,366.6720341066154 422.4697691973958,365.9678087923395 423.8782198259478,365.2635834780635 425.28667045449964,364.55935816378746 426.69512108305156,363.15090753523555 427.3993463973275,362.44668222095953 428.80779702587955,361.7424569066836 430.21624765443147,361.03823159240767 430.92047296870743,360.3340062781317 432.3289235972594,359.6297809638557 433.0331489115353,359.6297809638557 433.73737422581127,358.92555564957974 434.44159954008717,358.92555564957974 434.44159954008717,358.2213303353038 435.1458248543632,358.2213303353038 435.85005016863914,357.5171050210278 435.85005016863914,357.5171050210278 436.55427548291505,356.81287970675186 436.55427548291505,356.81287970675186 437.25850079719106,356.1086543924759 437.962726111467,355.40442907819994 437.962726111467,354.700203763924 438.666951425743,354.700203763924 439.37117674001905,353.99597844964796 440.075402054295,353.291753135372 440.779627368571,353.291753135372 441.48385268284693,352.58752782109605 442.1880779971229,352.58752782109605 442.8923033113989,351.8833025068201 443.5965286256748,351.8833025068201 444.30075393995077,351.1790771925441 445.00497925422667,351.1790771925441 445.7092045685027,350.47485187826817 446.41342988277864,350.47485187826817 447.1176551970546,349.7706265639922 447.8218805113306,349.7706265639922 447.8218805113306,349.7706265639922 448.5261058256065,349.0664012497162 449.2303311398825,349.0664012497162 449.2303311398825,349.0664012497162 449.2303311398825,349.0664012497162 449.2303311398825,349.7706265639922 449.2303311398825,349.7706265639922 449.2303311398825,349.7706265639922 449.2303311398825,348.36217593544023 449.93455645415855,346.9537253068883 451.3430070827105,345.5452746783364 452.04723239698643,344.84104936406044 452.7514577112624,344.1368240497845 453.4556830255383,343.43259873550846 453.4556830255383,342.7283734212325 454.1599083398143,342.02414810695655 454.1599083398143,342.02414810695655 454.86413365409027,341.3199227926806 454.86413365409027,341.3199227926806 455.5683589683662,340.6156974784046 455.5683589683662,339.91147216412867 456.27258428264224,339.91147216412867 456.27258428264224,339.2072468498527 456.97680959691814,339.2072468498527 456.97680959691814,338.50302153557675 457.6810349111941,338.50302153557675 457.6810349111941,337.79879622130073 458.3852602254701,337.79879622130073 459.089485539746,337.0945709070248 459.793710854022,337.0945709070248 459.793710854022,337.0945709070248 459.793710854022,337.0945709070248 459.793710854022,337.0945709070248 459.793710854022,337.0945709070248 459.089485539746,337.0945709070248 459.089485539746,337.0945709070248 458.3852602254701,337.0945709070248 457.6810349111941,337.0945709070248 456.97680959691814,336.3903455927488 456.27258428264224,336.3903455927488 456.27258428264224,336.3903455927488 455.5683589683662,335.68612027847286 454.86413365409027,334.9818949641969 454.1599083398143,334.9818949641969 453.4556830255383,334.27766964992094 452.7514577112624,334.27766964992094 452.04723239698643,334.27766964992094 452.04723239698643,334.27766964992094 452.04723239698643,334.27766964992094 452.04723239698643,334.9818949641969 452.04723239698643,335.68612027847286 452.04723239698643,336.3903455927488 452.04723239698643,337.79879622130073 452.04723239698643,338.50302153557675 451.3430070827105,339.2072468498527 450.6387817684345,340.6156974784046 450.6387817684345,341.3199227926806 449.93455645415855,341.3199227926806 449.2303311398825,342.02414810695655 449.2303311398825,342.7283734212325 448.5261058256065,342.7283734212325 448.5261058256065,342.7283734212325 447.8218805113306,342.7283734212325 447.1176551970546,343.43259873550846 447.1176551970546,343.43259873550846 446.41342988277864,343.43259873550846 446.41342988277864,344.1368240497845 445.7092045685027,344.84104936406044 445.00497925422667,344.84104936406044 444.30075393995077,345.5452746783364 444.30075393995077,345.5452746783364 443.5965286256748,346.24949999261236 442.8923033113989,346.24949999261236 442.8923033113989,346.9537253068883 442.1880779971229,346.9537253068883 442.1880779971229,346.9537253068883 442.1880779971229,347.6579506211643 442.1880779971229,347.6579506211643 441.48385268284693,347.6579506211643 441.48385268284693,347.6579506211643 441.48385268284693,347.6579506211643 440.779627368571,347.6579506211643 440.779627368571,347.6579506211643 440.779627368571,347.6579506211643 440.075402054295,347.6579506211643 440.075402054295,347.6579506211643 440.075402054295,346.24949999261236 440.075402054295,345.5452746783364 440.075402054295,344.1368240497845 440.075402054295,342.02414810695655 439.37117674001905,340.6156974784046 439.37117674001905,339.2072468498527 439.37117674001905,338.50302153557675 438.666951425743,337.0945709070248 438.666951425743,335.68612027847286 437.962726111467,334.27766964992094 437.962726111467,332.869219021369 437.962726111467,331.46076839281704 437.962726111467,330.0523177642651 437.25850079719106,328.6438671357132 437.25850079719106,327.93964182143725 436.55427548291505,326.5311911928853 435.85005016863914,325.8269658786093 435.1458248543632,325.12274056433336 435.1458248543632,324.4185152500574 434.44159954008717,323.71428993578144 434.44159954008717,323.71428993578144 433.73737422581127,323.0100646215055 433.73737422581127,323.0100646215055 433.0331489115353,322.3058393072295 433.0331489115353,322.3058393072295 432.3289235972594,321.6016139929535 432.3289235972594,320.89738867867754 432.3289235972594,320.1931633644016 432.3289235972594,319.4889380501256 431.6246982829834,318.78471273584967 431.6246982829834,318.0804874215737 431.6246982829834,318.0804874215737 431.6246982829834,317.37626210729775 431.6246982829834,317.37626210729775 431.6246982829834,317.37626210729775 431.6246982829834,317.37626210729775 432.3289235972594,317.37626210729775 432.3289235972594,317.37626210729775 432.3289235972594,317.37626210729775 432.3289235972594,317.37626210729775 433.0331489115353,317.37626210729775 433.0331489115353,317.37626210729775 433.0331489115353,317.37626210729775 433.0331489115353,316.6720367930218 433.0331489115353,315.9678114787458 433.0331489115353,315.2635861644698 433.0331489115353,314.55936085019385 433.0331489115353,313.15091022164194 433.0331489115353,312.446684907366 433.0331489115353,311.74245959309 433.0331489115353,311.03823427881406 433.0331489115353,311.03823427881406 432.3289235972594,310.33400896453804 432.3289235972594,310.33400896453804 432.3289235972594,309.6297836502621 432.3289235972594,309.6297836502621 431.6246982829834,308.9255583359861 431.6246982829834,308.9255583359861 431.6246982829834,308.9255583359861 432.3289235972594,308.9255583359861 432.3289235972594,308.9255583359861 433.0331489115353,309.6297836502621 433.73737422581127,309.6297836502621 434.44159954008717,309.6297836502621 435.85005016863914,309.6297836502621 436.55427548291505,309.6297836502621 437.25850079719106,309.6297836502621 437.962726111467,309.6297836502621 437.962726111467,310.33400896453804 438.666951425743,310.33400896453804 438.666951425743,310.33400896453804 439.37117674001905,310.33400896453804 440.075402054295,310.33400896453804 440.779627368571,310.33400896453804 441.48385268284693,311.03823427881406 442.1880779971229,311.03823427881406 442.8923033113989,311.74245959309 443.5965286256748,311.74245959309 444.30075393995077,312.446684907366 445.00497925422667,312.446684907366 445.7092045685027,313.15091022164194 445.7092045685027,313.15091022164194 446.41342988277864,313.15091022164194 447.1176551970546,313.8551355359179 447.1176551970546,313.8551355359179 447.1176551970546,314.55936085019385 447.8218805113306,314.55936085019385 447.8218805113306,314.55936085019385 447.8218805113306,315.2635861644698 447.8218805113306,315.2635861644698 447.8218805113306,315.9678114787458 447.8218805113306,315.9678114787458 447.8218805113306,316.6720367930218 447.8218805113306,316.6720367930218 447.8218805113306,316.6720367930218 447.8218805113306,316.6720367930218 447.8218805113306,316.6720367930218 447.1176551970546,316.6720367930218 447.1176551970546,316.6720367930218 446.41342988277864,316.6720367930218 446.41342988277864,316.6720367930218 445.7092045685027,316.6720367930218 445.00497925422667,316.6720367930218 444.30075393995077,315.9678114787458 442.8923033113989,315.2635861644698 442.1880779971229,314.55936085019385 440.779627368571,313.8551355359179 439.37117674001905,313.15091022164194 437.962726111467,311.74245959309 436.55427548291505,311.03823427881406 435.1458248543632,309.6297836502621 434.44159954008717,308.9255583359861 433.0331489115353,307.5171077074342 432.3289235972594,306.1086570788823 431.6246982829834,304.7002064503303 430.21624765443147,303.99598113605435 429.51202234015545,302.58753050750244 428.80779702587955,301.8833051932265 428.1035717116036,301.1790798789505 427.3993463973275,300.47485456467456 426.69512108305156,299.77062925039854 426.69512108305156,299.0664039361226 425.99089576877554,298.3621786218466 425.28667045449964,297.65795330757066 425.28667045449964,296.9537279932947 424.5824451402237,296.24950267901875 423.8782198259478,295.5452773647428 423.8782198259478,294.8410520504668 423.17399451167176,294.1368267361908 422.4697691973958,294.1368267361908 422.4697691973958,293.43260142191485 421.76554388311985,293.43260142191485 421.06131856884383,293.43260142191485 420.3570932545679,292.7283761076389 420.3570932545679,292.7283761076389 420.3570932545679,292.7283761076389 420.3570932545679,292.7283761076389 420.3570932545679,292.7283761076389 420.3570932545679,292.7283761076389 420.3570932545679,293.43260142191485 420.3570932545679,292.7283761076389 419.65286794029197,292.02415079336294 418.24441731174005,290.615700164811 415.42751605463616,288.5030242219831 413.3148401118082,285.68612296487925 411.20216416898035,283.5734470220513 410.49793885470433,282.1649963934994 409.7937135404284,281.46077107922343 408.38526291187657,280.7565457649475 407.68103759760055,279.34809513639556 406.27258696904863,277.9396445078436 405.56836165477256,277.2354191935676 404.1599110262206,275.8269685650157 403.4556857119447,275.12274325073975 402.7514603976687,274.4185179364638 402.7514603976687,273.01006730791187 402.0472350833927,273.01006730791187 402.0472350833927,272.30584199363585 401.3430097691168,271.6016166793599 401.3430097691168,271.6016166793599 401.3430097691168,270.89739136508393 401.3430097691168,270.89739136508393 400.63878445484085,270.89739136508393 400.63878445484085,270.193166050808 400.63878445484085,270.193166050808 400.63878445484085,270.193166050808 399.93455914056494,269.488940736532 399.93455914056494,269.488940736532 399.2303338262889,269.488940736532 399.2303338262889,268.78471542225606 398.52610851201297,268.0804901079801 397.821883197737,266.6720394794281 396.4134325691851,265.2635888508762 395.00498194063306,263.8551382223243 393.5965313120811,262.44668759377237 392.1880806835292,261.7424622794964 391.4838553692533,260.33401165094443 390.7796300549773,259.6297863366685 389.3711794264254,258.22133570811656 388.6669541121494,257.5171103938406 387.96272879787347,256.81288507956464 387.2585034835975,255.4044344510127 386.5542781693215,254.70020913673676 385.8500528550456,253.99598382246077 385.8500528550456,253.2917585081848 385.14582754076963,252.58753319390885 385.14582754076963,251.8833078796329 384.4416022264937,251.17908256535696 384.4416022264937,249.77063193680496 384.4416022264937,249.066406622529 384.4416022264937,249.066406622529 384.4416022264937,248.36218130825304 383.7373769122176,248.36218130825304 384.4416022264937,248.36218130825304 384.4416022264937,248.36218130825304 384.4416022264937,248.36218130825304 384.4416022264937,248.36218130825304 384.4416022264937,248.36218130825304 384.4416022264937,248.36218130825304 384.4416022264937,248.36218130825304 385.14582754076963,249.066406622529 385.8500528550456,249.066406622529 387.2585034835975,249.77063193680496 387.96272879787347,250.4748572510809 388.6669541121494,251.17908256535696 389.3711794264254,251.8833078796329 390.07540474070134,251.8833078796329 390.7796300549773,252.58753319390885 391.4838553692533,252.58753319390885 391.4838553692533,253.2917585081848 391.4838553692533,253.2917585081848 391.4838553692533,253.2917585081848 392.1880806835292,253.2917585081848 392.1880806835292,253.2917585081848 392.1880806835292,253.2917585081848 392.8923059978052,253.99598382246077 392.8923059978052,253.99598382246077 394.3007566263571,254.70020913673676 395.00498194063306,255.4044344510127 396.4134325691851,255.4044344510127 397.117657883461,256.1086597652886 397.117657883461,256.1086597652886 397.821883197737,256.1086597652886 397.821883197737,256.1086597652886 398.52610851201297,256.1086597652886 398.52610851201297,256.1086597652886 398.52610851201297,256.1086597652886 398.52610851201297,256.1086597652886 398.52610851201297,256.1086597652886 399.2303338262889,256.1086597652886 399.2303338262889,256.1086597652886 399.93455914056494,256.1086597652886 400.63878445484085,256.1086597652886 401.3430097691168,256.1086597652886 402.0472350833927,256.1086597652886 402.7514603976687,256.1086597652886 403.4556857119447,256.1086597652886 403.4556857119447,256.1086597652886 403.4556857119447,256.1086597652886 403.4556857119447,256.1086597652886 403.4556857119447,256.1086597652886 403.4556857119447,256.1086597652886 403.4556857119447,256.1086597652886 403.4556857119447,256.1086597652886 403.4556857119447,255.4044344510127 403.4556857119447,254.70020913673676 403.4556857119447,253.2917585081848 402.7514603976687,251.17908256535696 402.7514603976687,249.066406622529 402.0472350833927,247.65795599397708 401.3430097691168,246.24950536542514 401.3430097691168,244.84105473687322 401.3430097691168,244.13682942259723 400.63878445484085,242.72837879404528 400.63878445484085,242.02415347976935 400.63878445484085,241.3199281654934 399.93455914056494,240.6157028512174 399.93455914056494,239.91147753694142 399.93455914056494,239.2072522226655 399.2303338262889,238.50302690838947 399.2303338262889,238.50302690838947 398.52610851201297,237.79880159411354 398.52610851201297,237.79880159411354 397.821883197737,237.79880159411354 397.821883197737,237.79880159411354 397.821883197737,237.09457627983758 397.117657883461,237.09457627983758 397.117657883461,237.09457627983758 397.117657883461,237.09457627983758 397.117657883461,237.79880159411354 397.117657883461,237.79880159411354 397.117657883461,237.79880159411354 396.4134325691851,237.79880159411354 396.4134325691851,237.79880159411354 396.4134325691851,237.79880159411354 396.4134325691851,237.79880159411354 395.70920725490913,237.79880159411354 395.70920725490913,237.79880159411354 395.00498194063306,237.79880159411354 394.3007566263571,237.79880159411354 393.5965313120811,237.79880159411354 392.8923059978052,237.09457627983758 392.1880806835292,237.09457627983758 392.1880806835292,236.39035096556162 391.4838553692533,236.39035096556162 390.7796300549773,236.39035096556162 390.7796300549773,235.6861256512856 390.07540474070134,235.6861256512856 390.07540474070134,235.6861256512856 390.07540474070134,235.6861256512856 389.3711794264254,235.6861256512856 389.3711794264254,234.98190033700968 388.6669541121494,234.98190033700968 388.6669541121494,234.27767502273372 387.96272879787347,233.5734497084578 387.2585034835975,232.86922439418177 386.5542781693215,232.86922439418177 386.5542781693215,232.1649990799058 385.8500528550456,231.46077376562985 385.8500528550456,231.46077376562985 385.8500528550456,230.75654845135386 385.14582754076963,230.0523231370779 385.14582754076963,228.643872508526 384.4416022264937,227.93964719425 384.4416022264937,226.53119656569805 383.7373769122176,225.12274593714616 383.7373769122176,224.41852062287018 383.0331515979417,223.71429530859422 382.3289262836657,223.71429530859422 382.3289262836657,223.01006999431826 381.6247009693897,223.01006999431826 381.6247009693897,223.01006999431826 381.6247009693897,223.01006999431826 380.9204756551138,223.01006999431826 380.9204756551138,222.3058446800423 380.2162503408378,222.3058446800423 380.2162503408378,221.6016193657663 379.51202502656184,220.89739405149035 379.51202502656184,220.89739405149035 378.8077997122859,220.19316873721442 378.8077997122859,219.48894342293843 378.8077997122859,218.78471810866245 378.8077997122859,217.37626748011056 378.10357439800987,216.67204216583454 378.10357439800987,216.67204216583454 378.10357439800987,215.9678168515586 378.10357439800987,215.26359153728262 377.39934908373397,215.26359153728262 377.39934908373397,215.26359153728262 377.39934908373397,215.26359153728262 377.39934908373397,215.26359153728262 377.39934908373397,215.26359153728262 377.39934908373397,215.9678168515586 377.39934908373397,215.9678168515586 377.39934908373397,215.9678168515586 377.39934908373397,215.9678168515586 377.39934908373397,215.9678168515586 377.39934908373397,215.26359153728262 376.695123769458,213.85514090873068 376.695123769458,212.44669028017876 375.2866731409061,211.0382396516268 374.58244782663013,208.92556370879893 373.8782225123542,206.81288776597103 372.4697718838022,204.70021182314312 371.7655465695262,201.88331056603926 371.0613212552502,199.77063462321138 369.65287062669825,198.3621839946594 369.65287062669825,196.95373336610746 368.94864531242234,195.54528273755557 368.2444199981464,194.1368321090036 368.2444199981464,193.43260679472766 367.5401946838705,192.7283814804517 367.5401946838705,192.7283814804517 367.5401946838705,192.02415616617571 367.5401946838705,192.02415616617571 366.83596936959447,192.02415616617571 366.83596936959447,191.31993085189976 366.1317440553185,190.6157055376238 365.4275187410426,189.91148022334784 364.7232934267666,189.91148022334784 364.7232934267666,189.91148022334784 364.01906811249063,189.20725490907185 364.01906811249063,189.20725490907185 364.01906811249063,189.20725490907185 364.01906811249063,189.20725490907185 364.01906811249063,187.79880428051996 363.31484279821467,184.2776777091401 361.90639216966264,180.75655113776023 360.4979415411107,177.23542456638043 359.0894909125588,174.41852330927657 357.6810402840069,171.6016220521727 356.9768149697309,169.4889461093448 355.568364341179,168.08049548079288 354.86413902690305,166.67204485224093 354.1599137126271,165.263594223689 353.4556883983511,165.263594223689 353.4556883983511,164.55936890941302 352.75146308407517,164.55936890941302 352.75146308407517,164.55936890941302 352.75146308407517,163.85514359513706 352.0472377697992,163.85514359513706 352.0472377697992,163.85514359513706 352.0472377697992,163.1509182808611 352.0472377697992,163.1509182808611 351.34301245552325,163.1509182808611 351.34301245552325,162.44669296658515 351.34301245552325,162.44669296658515 351.34301245552325,162.44669296658515 351.34301245552325,162.44669296658515 351.34301245552325,161.74246765230916 351.34301245552325,161.74246765230916 351.34301245552325,161.0382423380332 350.6387871412472,161.0382423380332 350.6387871412472,159.62979170948128 349.9345618269712,158.9255663952053 349.23033651269526,158.22134108092934 348.5261111984193,156.81289045237742 348.5261111984193,156.10866513810143 347.82188588414334,155.40443982382547 347.82188588414334,155.40443982382547 347.82188588414334,154.7002145095495 347.82188588414334,153.99598919527355 347.82188588414334,153.99598919527355 347.1176605698674,153.99598919527355 347.1176605698674,153.29176388099756 347.1176605698674,153.29176388099756 347.1176605698674,153.29176388099756 347.1176605698674,153.29176388099756 347.1176605698674,153.29176388099756 346.4134352555914,153.29176388099756 346.4134352555914,153.29176388099756 346.4134352555914,153.29176388099756 346.4134352555914,152.5875385667216 346.4134352555914,151.88331325244565 346.4134352555914,150.4748626238937 346.4134352555914,148.3621866810658 345.70920994131546,146.24951073823792 345.0049846270395,143.43260948113405 344.30075931276355,141.31993353830615 342.8923086842116,139.20725759547824 341.4838580556597,137.09458165265033 340.77963274138375,135.68613102409842 340.0754074271077,134.27768039554647 339.3711821128317,133.5734550812705 339.3711821128317,132.86922976699455 338.66695679855576,132.1650044527186 338.66695679855576,131.4607791384426 338.66695679855576,131.4607791384426 338.66695679855576,131.4607791384426 338.66695679855576,131.4607791384426 338.66695679855576,131.4607791384426 338.66695679855576,131.4607791384426 337.9627314842798,130.75655382416664 337.9627314842798,130.75655382416664 337.9627314842798,130.05232850989069 337.9627314842798,130.05232850989069 337.9627314842798,130.05232850989069 337.9627314842798,129.34810319561473 337.25850617000384,128.64387788133874 337.25850617000384,127.93965256706278 337.25850617000384,127.93965256706278 337.25850617000384,127.23542725278682 337.25850617000384,125.82697662423487 337.25850617000384,125.12275130995891 337.25850617000384,123.71430068140697 337.25850617000384,122.30585005285506 336.5542808557279,120.19317411002716 336.5542808557279,118.08049816719925 335.8500555414519,115.26359691009539 335.14583022717596,113.15092096726748 334.4416049129,110.33401971016362 333.73737959862405,108.22134376733574 333.73737959862405,106.81289313878378 333.0331542843481,106.10866782450783 333.0331542843481,106.10866782450783 333.0331542843481,106.10866782450783 333.0331542843481,106.10866782450783 333.0331542843481,106.81289313878378 333.0331542843481,106.81289313878378 333.0331542843481,106.10866782450783 333.0331542843481,104.70021719595587 332.3289289700721,103.29176656740395 332.3289289700721,101.17909062457605 332.3289289700721,99.77063999602412 332.3289289700721,98.36218936747218 331.62470365579617,97.65796405319622 331.62470365579617,96.24951342464429 331.62470365579617,95.54528811036832 331.62470365579617,95.54528811036832 331.62470365579617,94.84106279609236 331.62470365579617,94.13683748181639 331.62470365579617,94.13683748181639 331.62470365579617,93.43261216754044 331.62470365579617,92.72838685326445 330.9204783415202,92.02416153898848 330.21625302724425,91.31993622471254 330.21625302724425,91.31993622471254 329.5120277129683,90.61571091043656 328.8078023986922,89.91148559616059 328.10357708441626,89.20726028188463 328.10357708441626,88.50303496760866 328.10357708441626,87.7988096533327 327.3993517701403,87.7988096533327 327.3993517701403,87.09458433905672 327.3993517701403,87.09458433905672 327.3993517701403,86.39035902478076 327.3993517701403,85.68613371050479 326.69512645586434,84.98190839622883 326.69512645586434,84.27768308195286 326.69512645586434,83.5734577676769 326.69512645586434,83.5734577676769 326.69512645586434,82.86923245340093 326.69512645586434,82.16500713912497 326.69512645586434,81.460781824849 326.69512645586434,81.460781824849 326.69512645586434,80.75655651057302 326.69512645586434,80.75655651057302 326.69512645586434,80.05233119629706 326.69512645586434,80.05233119629706 326.69512645586434,79.34810588202109 326.69512645586434,79.34810588202109 326.69512645586434,79.34810588202109 326.69512645586434,79.34810588202109 326.69512645586434,78.64388056774513 326.69512645586434,78.64388056774513 326.69512645586434,78.64388056774513 326.69512645586434,78.64388056774513 326.69512645586434,78.64388056774513 325.9909011415884,77.93965525346916 325.9909011415884,77.93965525346916 325.9909011415884,76.53120462491722 325.9909011415884,74.41852868208933 325.9909011415884,72.30585273926143 325.9909011415884,70.19317679643353 325.9909011415884,68.7847261678816 325.9909011415884,67.37627553932967 325.2866758273124,66.6720502250537 325.2866758273124,65.96782491077774 325.2866758273124,65.26359959650176 325.2866758273124,64.5593742822258 325.2866758273124,64.5593742822258 325.2866758273124,63.85514896794983 325.2866758273124,63.85514896794983 324.58245051303646,63.15092365367387 324.58245051303646,63.15092365367387 323.8782251987605,62.4466983393979 323.8782251987605,62.4466983393979 323.8782251987605,61.742473025121946 323.8782251987605,61.742473025121946 323.17399988448454,61.038247710845965 323.17399988448454,60.33402239657 322.4697745702086,59.62979708229404 322.4697745702086,59.62979708229404 321.7655492559326,58.925571768018074 321.7655492559326,58.22134645374209 321.7655492559326,57.517121139466134 321.7655492559326,56.81289582519017 321.7655492559326,56.108670510914195 321.7655492559326,55.404445196638235 321.7655492559326,54.70021988236226 321.7655492559326,53.9959945680863 321.7655492559326,53.29176925381033 321.7655492559326,51.8833186252584 321.7655492559326,51.17909331098244 321.7655492559326,49.770642682430505 321.7655492559326,49.06641736815453 321.7655492559326,48.36219205387857 321.7655492559326,48.36219205387857 321.7655492559326,48.36219205387857 321.0613239416566,48.36219205387857 321.0613239416566,48.36219205387857 321.0613239416566,48.36219205387857 321.0613239416566,47.6579667396026 321.0613239416566,46.953741425326626 321.0613239416566,45.545290796774694 321.0613239416566,44.13684016822276 321.0613239416566,42.72838953967083 321.0613239416566,42.02416422539487 321.0613239416566,41.319938911118896 321.0613239416566,40.61571359684294 321.0613239416566,39.911488282566964 321.0613239416566,39.207262968291005 321.0613239416566,38.50303765401503 321.0613239416566,37.79881233973907 321.0613239416566,37.79881233973907 320.35709862738065,37.0945870254631 320.35709862738065,35.68613639691117 320.35709862738065,34.98191108263521 319.6528733131047,34.98191108263521 319.6528733131047,34.277685768359234 319.6528733131047,33.573460454083275 319.6528733131047,33.573460454083275 319.6528733131047,32.8692351398073 319.6528733131047,32.16500982553134 319.6528733131047,32.16500982553134 319.6528733131047,32.16500982553134 319.6528733131047,31.460784511255376 319.6528733131047,31.460784511255376 319.6528733131047,30.756559196979406 319.6528733131047,30.756559196979406 319.6528733131047,30.756559196979406 319.6528733131047,30.756559196979406 319.6528733131047,30.756559196979406 319.6528733131047,30.05233388270344 319.6528733131047,30.756559196979406 319.6528733131047,30.756559196979406 319.6528733131047,30.756559196979406 319.6528733131047,31.460784511255376 318.94864799882873,32.16500982553134 318.94864799882873,32.8692351398073 318.94864799882873,33.573460454083275 318.94864799882873,34.277685768359234 318.94864799882873,34.98191108263521 318.2444226845528,34.98191108263521 318.2444226845528,35.68613639691117 318.2444226845528,35.68613639691117 317.5401973702768,36.39036171118714 317.5401973702768,37.0945870254631 317.5401973702768,37.0945870254631 316.83597205600086,37.79881233973907 316.1317467417249,37.79881233973907 315.4275214274489,38.50303765401503 314.7232961131729,39.207262968291005 314.01907079889696,39.911488282566964 313.314845484621,40.61571359684294 312.61062017034504,41.319938911118896 311.9063948560691,42.02416422539487 310.49794422751717,42.72838953967083 309.79371891324115,43.4326148539468 309.0894935989652,43.4326148539468 308.38526828468923,44.13684016822276 307.6810429704133,44.841065482498735 306.9768176561373,44.841065482498735 306.27259234186135,45.545290796774694 306.27259234186135,46.24951611105067 306.27259234186135,46.24951611105067 305.5683670275854,46.953741425326626 305.5683670275854,46.953741425326626 305.5683670275854,47.6579667396026 305.5683670275854,47.6579667396026 305.5683670275854,47.6579667396026 304.8641417133094,47.6579667396026 304.8641417133094,47.6579667396026 304.8641417133094,47.6579667396026 304.8641417133094,47.6579667396026 304.8641417133094,48.36219205387857 304.8641417133094,48.36219205387857 304.1599163990334,48.36219205387857 304.1599163990334,49.06641736815453 303.45569108475746,49.06641736815453 302.7514657704815,49.770642682430505 302.04724045620554,50.47486799670646 301.3430151419296,51.17909331098244 300.6387898276536,51.8833186252584 299.23033919910165,51.8833186252584 298.5261138848257,52.58754393953438 297.82188857054973,53.29176925381033 297.1176632562738,53.9959945680863 296.4134379419978,53.9959945680863 295.0049873134459,54.70021988236226 294.30076199916994,55.404445196638235 293.5965366848939,56.108670510914195 292.89231137061796,56.108670510914195 291.48386074206604,56.81289582519017 290.7796354277901,57.517121139466134 290.0754101135141,57.517121139466134 289.37118479923816,58.22134645374209 288.6669594849622,58.925571768018074 287.9627341706862,59.62979708229404 286.55428354213427,60.33402239657 285.8500582278583,60.33402239657 285.14583291358235,61.038247710845965 284.4416075993064,61.038247710845965 284.4416075993064,61.742473025121946 283.73738228503044,61.742473025121946 283.73738228503044,61.742473025121946 283.0331569707544,61.742473025121946 283.0331569707544,61.742473025121946 283.0331569707544,61.742473025121946 282.32893165647846,62.4466983393979 280.2162557136506,64.5593742822258 277.3993544565467,66.6720502250537 273.8782278851669,68.7847261678816 271.061326628063,70.89740211070949 268.24442537095916,72.30585273926143 266.13174942813123,73.71430336781336 264.01907348530335,75.12275399636529 261.9063975424755,76.53120462491722 259.79372159964754,77.2354299391932 258.3852709710956,78.64388056774513 256.27259502826774,80.05233119629706 254.86414439971574,80.75655651057302 254.1599190854398,81.460781824849 252.75146845688792,82.16500713912497 252.04724314261193,82.16500713912497 251.34301782833595,82.86923245340093 250.63879251406001,82.86923245340093 249.934567199784,83.5734577676769 249.23034188550804,83.5734577676769 249.23034188550804,83.5734577676769 249.23034188550804,83.5734577676769 248.5261165712321,84.27768308195286 247.11766594268016,84.98190839622883 245.0049899998523,87.09458433905672 243.5965393713003,89.20726028188463 241.48386342847243,90.61571091043656 240.0754127999205,91.31993622471254 238.66696217136854,92.72838685326445 237.25851154281662,94.13683748181639 235.8500609142647,95.54528811036832 234.44161028571278,96.95373873892025 233.73738497143677,98.36218936747218 232.32893434288488,99.06641468174816 230.92048371433293,100.47486531030009 229.512033085781,101.17909062457605 228.103582457229,102.58754125312797 226.69513182867712,103.29176656740395 225.2866812001252,104.70021719595587 223.87823057157328,106.10866782450783 221.76555462874535,106.81289313878378 221.0613293144694,107.51711845305977 219.65287868591747,108.92556908161168 218.24442805736555,109.62979439588767 217.5402027430896,110.33401971016362 216.1317521145376,111.03824502443959 215.42752680026166,111.74247033871555 214.01907617170974,112.44669565299152 213.31485085743378,112.44669565299152 212.6106255431578,113.15092096726748 211.20217491460585,113.85514628154345 210.4979496003299,113.85514628154345 210.4979496003299,114.55937159581941 209.79372428605393,114.55937159581941 209.79372428605393,113.85514628154345 209.79372428605393,113.85514628154345 209.79372428605393,113.85514628154345 209.79372428605393,115.26359691009539 208.38527365750198,116.67204753864732 206.9768230289501,118.7847234814752 206.27259771467408,120.8973994243031 204.86414708612216,122.30585005285506 204.15992177184617,123.71430068140697 202.75147114329428,125.12275130995891 201.34302051474236,126.53120193851088 200.63879520046635,127.23542725278682 199.23034457191443,128.64387788133874 197.11766862908655,129.34810319561473 195.70921800053463,130.05232850989069 194.30076737198266,131.4607791384426 192.18809142915475,132.1650044527186 190.77964080060286,132.86922976699455 189.37119017205092,134.27768039554647 187.96273954349894,134.98190570982246 187.258514229223,135.68613102409842 185.85006360067112,136.39035633837437 185.14583828639513,137.09458165265033 184.44161297211912,137.79880696692632 183.73738765784313,138.50303228120228 183.0331623435672,138.50303228120228 182.32893702929124,139.20725759547824 181.6247117150153,139.20725759547824 181.6247117150153,139.9114829097542 180.92048640073932,139.9114829097542 180.92048640073932,140.6157082240302 180.21626108646336,140.6157082240302 180.21626108646336,140.6157082240302 180.21626108646336,140.6157082240302 180.21626108646336,140.6157082240302 180.21626108646336,139.9114829097542 180.21626108646336,139.9114829097542 179.5120357721874,140.6157082240302 178.8078104579114,142.0241588525821 178.10358514363543,142.72838416685806 177.39935982935947,143.43260948113405 176.6951345150835,144.13683479541 175.99090920080755,144.84106010968597 174.58245857225563,145.54528542396193 173.87823325797967,146.24951073823792 172.4697826294277,146.24951073823792 171.76555731515174,146.95373605251388 171.06133200087578,147.65796136678983 170.35710668659982,148.3621866810658 169.65288137232386,148.3621866810658 168.9486560580479,149.06641199534178 168.2444307437719,149.06641199534178 168.2444307437719,149.77063730961774 167.54020542949593,149.77063730961774 167.54020542949593,150.4748626238937 166.83598011521997,151.1790879381697 166.131754800944,151.1790879381697 166.131754800944,151.1790879381697 166.131754800944,151.88331325244565 165.42752948666805,151.88331325244565 165.42752948666805,151.88331325244565 165.42752948666805,151.88331325244565 165.42752948666805,151.88331325244565 164.7233041723921,151.88331325244565 164.7233041723921,152.5875385667216 164.7233041723921,152.5875385667216 164.7233041723921,152.5875385667216 164.7233041723921,152.5875385667216 164.7233041723921,152.5875385667216 164.01907885811613,153.29176388099756 164.01907885811613,153.29176388099756 164.01907885811613,153.29176388099756 164.01907885811613,153.29176388099756 164.01907885811613,153.99598919527355 163.31485354384017,153.99598919527355 163.31485354384017,153.99598919527355 163.31485354384017,154.7002145095495 163.31485354384017,154.7002145095495 163.31485354384017,155.40443982382547 163.31485354384017,155.40443982382547 163.31485354384017,155.40443982382547 162.61062822956416,155.40443982382547 162.61062822956416,155.40443982382547 162.61062822956416,155.40443982382547 162.61062822956416,156.10866513810143 162.61062822956416,156.10866513810143 162.61062822956416,156.10866513810143 162.61062822956416,156.10866513810143 162.61062822956416,156.81289045237742 162.61062822956416,156.81289045237742 162.61062822956416,156.81289045237742 162.61062822956416,156.81289045237742 162.61062822956416,157.51711576665338 162.61062822956416,157.51711576665338 162.61062822956416,157.51711576665338 162.61062822956416,157.51711576665338 162.61062822956416,158.22134108092934 162.61062822956416,158.22134108092934 162.61062822956416,158.9255663952053 162.61062822956416,158.9255663952053 162.61062822956416,159.62979170948128 163.31485354384017,160.33401702375724 163.31485354384017,160.33401702375724 163.31485354384017,161.0382423380332 164.01907885811613,161.74246765230916 164.01907885811613,162.44669296658515 164.01907885811613,163.1509182808611 164.01907885811613,163.85514359513706 164.7233041723921,165.263594223689 164.7233041723921,165.96781953796497 164.7233041723921,166.67204485224093 164.7233041723921,167.3762701665169 165.42752948666805,167.3762701665169 165.42752948666805,168.08049548079288 165.42752948666805,168.08049548079288 165.42752948666805,167.3762701665169 165.42752948666805,167.3762701665169 165.42752948666805,167.3762701665169 165.42752948666805,167.3762701665169 165.42752948666805,167.3762701665169 165.42752948666805,167.3762701665169 165.42752948666805,168.78472079506884 165.42752948666805,170.89739673789674 165.42752948666805,173.01007268072465 165.42752948666805,175.8269739378285 166.131754800944,178.64387519493238 166.131754800944,181.46077645203624 166.83598011521997,183.57345239486415 166.83598011521997,184.98190302341604 167.54020542949593,187.09457896624397 167.54020542949593,188.5030295947959 168.2444307437719,189.20725490907185 168.2444307437719,190.6157055376238 168.2444307437719,191.31993085189976 168.9486560580479,192.02415616617571 168.9486560580479,192.7283814804517 168.9486560580479,193.43260679472766 169.65288137232386,194.1368321090036 169.65288137232386,194.8410574232796 169.65288137232386,195.54528273755557 170.35710668659982,195.54528273755557 170.35710668659982,196.24950805183153 171.06133200087578,196.95373336610746 171.06133200087578,197.65795868038347 171.76555731515174,198.3621839946594 171.76555731515174,198.3621839946594 171.76555731515174,199.0664093089354 172.4697826294277,199.77063462321138 172.4697826294277,200.47485993748734 172.4697826294277,200.47485993748734 172.4697826294277,201.17908525176327 172.4697826294277,201.17908525176327 172.4697826294277,201.17908525176327 172.4697826294277,200.47485993748734 172.4697826294277,201.17908525176327 172.4697826294277,201.17908525176327 172.4697826294277,202.58753588031522 172.4697826294277,204.70021182314312 172.4697826294277,206.81288776597103 172.4697826294277,209.6297890230749 173.17400794370366,211.7424649659028 173.87823325797967,213.85514090873068 173.87823325797967,215.9678168515586 174.58245857225563,217.37626748011056 175.2866838865316,218.78471810866245 175.2866838865316,220.19316873721442 175.99090920080755,220.89739405149035 175.99090920080755,222.3058446800423 176.6951345150835,223.01006999431826 177.39935982935947,224.41852062287018 177.39935982935947,225.12274593714616 177.39935982935947,225.82697125142212 178.10358514363543,226.53119656569805 178.10358514363543,227.93964719425 178.10358514363543,228.643872508526 178.8078104579114,229.34809782280198 178.8078104579114,230.0523231370779 178.8078104579114,230.75654845135386 178.8078104579114,231.46077376562985 179.5120357721874,231.46077376562985 179.5120357721874,232.1649990799058 179.5120357721874,232.86922439418177 179.5120357721874,232.86922439418177 179.5120357721874,233.5734497084578 179.5120357721874,234.27767502273372 179.5120357721874,234.98190033700968 179.5120357721874,235.6861256512856 179.5120357721874,236.39035096556162 179.5120357721874,237.09457627983758 179.5120357721874,237.09457627983758 179.5120357721874,237.79880159411354 179.5120357721874,238.50302690838947 179.5120357721874,239.2072522226655 179.5120357721874,239.2072522226655 179.5120357721874,239.91147753694142 179.5120357721874,240.6157028512174 179.5120357721874,241.3199281654934 179.5120357721874,241.3199281654934 179.5120357721874,242.02415347976935 179.5120357721874,242.02415347976935 179.5120357721874,242.72837879404528 178.8078104579114,242.72837879404528 177.39935982935947,242.72837879404528 175.99090920080755,242.72837879404528 174.58245857225563,242.72837879404528 173.17400794370366,242.72837879404528 171.76555731515174,243.43260410832127 170.35710668659982,243.43260410832127 169.65288137232386,244.13682942259723 168.9486560580479,244.13682942259723 168.2444307437719,244.84105473687322 167.54020542949593,245.5452800511492 167.54020542949593,245.5452800511492 166.83598011521997,246.24950536542514 166.83598011521997,246.24950536542514 166.83598011521997,246.24950536542514 166.131754800944,246.95373067970115 166.131754800944,247.65795599397708 166.131754800944,247.65795599397708 165.42752948666805,248.36218130825304 164.7233041723921,248.36218130825304 164.01907885811613,249.066406622529 164.01907885811613,249.77063193680496 163.31485354384017,249.77063193680496 162.61062822956416,250.4748572510809 162.61062822956416,250.4748572510809 161.9064029152882,250.4748572510809 161.9064029152882,250.4748572510809 161.20217760101224,250.4748572510809 161.20217760101224,250.4748572510809 161.20217760101224,250.4748572510809 160.49795228673628,250.4748572510809 160.49795228673628,250.4748572510809 159.79372697246032,251.17908256535696 159.79372697246032,251.17908256535696 159.08950165818436,251.17908256535696 159.08950165818436,251.17908256535696 158.3852763439084,251.17908256535696 158.3852763439084,250.4748572510809 157.68105102963244,250.4748572510809 156.97682571535643,249.77063193680496 156.27260040108047,249.066406622529 156.27260040108047,248.36218130825304 155.5683750868045,246.95373067970115 155.5683750868045,246.24950536542514 154.86414977252855,244.84105473687322 154.86414977252855,243.43260410832127 154.1599244582526,242.72837879404528 154.1599244582526,241.3199281654934 154.1599244582526,240.6157028512174 153.45569914397663,239.91147753694142 153.45569914397663,238.50302690838947 153.45569914397663,237.79880159411354 152.75147382970067,237.09457627983758 152.75147382970067,237.09457627983758 152.0472485154247,236.39035096556162 152.0472485154247,235.6861256512856 151.3430232011487,234.98190033700968 151.3430232011487,234.27767502273372 151.3430232011487,234.27767502273372 151.3430232011487,233.5734497084578 151.3430232011487,232.86922439418177 151.3430232011487,232.1649990799058 151.3430232011487,231.46077376562985 151.3430232011487,231.46077376562985 151.3430232011487,230.75654845135386 151.3430232011487,230.75654845135386 151.3430232011487,230.0523231370779 151.3430232011487,230.0523231370779 151.3430232011487,229.34809782280198 151.3430232011487,229.34809782280198 151.3430232011487,228.643872508526 151.3430232011487,228.643872508526 151.3430232011487,227.93964719425 151.3430232011487,227.93964719425 151.3430232011487,227.93964719425 151.3430232011487,227.23542187997404 151.3430232011487,227.23542187997404 151.3430232011487,226.53119656569805 151.3430232011487,225.82697125142212 151.3430232011487,225.12274593714616 151.3430232011487,224.41852062287018 151.3430232011487,223.71429530859422 151.3430232011487,223.71429530859422 151.3430232011487,223.01006999431826 151.3430232011487,222.3058446800423 151.3430232011487,221.6016193657663 151.3430232011487,220.89739405149035 151.3430232011487,220.89739405149035 151.3430232011487,220.19316873721442 151.3430232011487,220.19316873721442 151.3430232011487,219.48894342293843 152.0472485154247,219.48894342293843 152.0472485154247,218.78471810866245 152.0472485154247,218.78471810866245 152.0472485154247,218.0804927943865 152.0472485154247,218.0804927943865 152.0472485154247,217.37626748011056 152.0472485154247,217.37626748011056 152.0472485154247,216.67204216583454 152.0472485154247,216.67204216583454 152.0472485154247,216.67204216583454 152.0472485154247,217.37626748011056 151.3430232011487,217.37626748011056 150.63879788687274,218.78471810866245 148.52612194404486,220.89739405149035 146.41344600121693,223.01006999431826 144.30077005838905,224.41852062287018 142.18809411556117,226.53119656569805 140.7796434870092,227.93964719425 139.37119285845728,228.643872508526 137.96274222990536,230.0523231370779 135.85006628707748,231.46077376562985 135.14584097280147,232.86922439418177 133.73739034424955,233.5734497084578 132.32893971569763,234.98190033700968 131.62471440142167,236.39035096556162 130.21626377286975,237.09457627983758 128.80781314431778,238.50302690838947 128.10358783004182,239.91147753694142 126.6951372014899,240.6157028512174 125.99091188721394,241.3199281654934 125.28668657293798,242.02415347976935 124.58246125866197,242.72837879404528 123.878235944386,243.43260410832127 123.878235944386,243.43260410832127 123.17401063011003,244.13682942259723 123.17401063011003,244.13682942259723 123.17401063011003,244.13682942259723 123.17401063011003,244.84105473687322 123.17401063011003,244.84105473687322 123.17401063011003,244.84105473687322 123.17401063011003,244.84105473687322 123.17401063011003,244.84105473687322 123.17401063011003,245.5452800511492 123.17401063011003,245.5452800511492 123.17401063011003,245.5452800511492 123.17401063011003,246.24950536542514 123.17401063011003,246.24950536542514 123.17401063011003,246.95373067970115 123.17401063011003,246.95373067970115 122.46978531583409,246.95373067970115 122.46978531583409,246.95373067970115 122.46978531583409,246.95373067970115 122.46978531583409,246.95373067970115 122.46978531583409,246.24950536542514 121.76556000155813,246.24950536542514 120.35710937300621,246.95373067970115 118.24443343017828,248.36218130825304 116.1317574873504,249.77063193680496 113.3148562302465,252.58753319390885 110.49795497314267,255.4044344510127 106.9768284017628,258.22133570811656 104.159927144659,261.0382369652204 101.34302588755509,263.1509129080483 98.52612463045125,265.2635888508762 95.70922337334737,266.6720394794281 93.59654743051948,268.0804901079801 92.18809680196757,269.488940736532 90.77964617341559,270.89739136508393 90.07542085913963,271.6016166793599 89.37119554486367,272.30584199363585 88.66697023058771,272.30584199363585 87.96274491631175,273.01006730791187 87.96274491631175,273.01006730791187 87.96274491631175,273.01006730791187 87.25851960203579,273.01006730791187 87.25851960203579,273.01006730791187 87.25851960203579,273.01006730791187 87.25851960203579,271.6016166793599 87.25851960203579,271.6016166793599 87.25851960203579,271.6016166793599 87.25851960203579,272.30584199363585 87.25851960203579,273.01006730791187 85.85006897348381,275.12274325073975 84.4416183449319,277.2354191935676 82.32894240210402,278.6438698221196 80.9204917735521,280.0523204506715 79.51204114500013,281.46077107922343 78.10359051644821,282.86922170777535 77.39936520217225,284.2776723363273 75.99091457362033,284.9818976506033 75.28668925934431,286.3903482791552 73.8782386307924,287.7987989077071 72.46978800224048,289.2072495362591 71.76556268796452,289.91147485053506 71.06133737368856,291.319925479087 69.65288674513658,292.02415079336294 68.94866143086062,292.7283761076389 67.5402108023087,294.1368267361908 66.83598548803275,294.8410520504668 66.13176017375679,295.5452773647428 64.72330954520484,296.24950267901875 64.01908423092888,296.9537279932947 63.31485891665293,297.65795330757066 62.61063360237693,298.3621786218466 61.90640828810098,299.0664039361226 61.90640828810098,299.0664039361226 61.202182973825025,299.0664039361226 61.202182973825025,299.0664039361226 61.202182973825025,299.0664039361226 61.202182973825025,299.0664039361226 61.202182973825025,299.0664039361226 60.49795765954906,299.77062925039854 58.38528171672115,301.8833051932265 56.97683108816921,303.2917558217784 54.86415514534131,305.4044317646063 52.75147920251342,306.81288239315825 50.63880325968552,308.9255583359861 49.23035263113357,310.33400896453804 47.82190200258165,311.74245959309 46.413451374029705,312.446684907366 45.00500074547779,313.8551355359179 43.59655011692584,314.55936085019385 42.89232480264988,315.2635861644698 42.18809948837392,315.9678114787458 41.48387417409796,315.9678114787458 40.779648859821975,316.6720367930218 40.075423545546016,317.37626210729775 40.075423545546016,317.37626210729775 39.37119823127006,318.0804874215737 39.37119823127006,318.0804874215737 38.6669729169941,318.78471273584967 38.6669729169941,318.78471273584967 37.96274760271811,318.78471273584967 37.96274760271811,319.4889380501256 37.96274760271811,319.4889380501256 37.25852228844215,320.1931633644016 37.25852228844215,320.1931633644016 36.55429697416619,320.89738867867754 36.55429697416619,320.89738867867754 35.850071659890205,321.6016139929535 35.145846345614245,321.6016139929535 34.441621031338286,322.3058393072295 34.441621031338286,323.0100646215055 33.73739571706233,323.0100646215055 33.73739571706233,323.71428993578144 33.03317040278634,323.71428993578144 33.03317040278634,324.4185152500574 32.32894508851038,324.4185152500574 31.624719774234418,325.12274056433336 30.920494459958462,325.8269658786093 30.920494459958462,325.8269658786093 30.216269145682475,326.5311911928853 30.216269145682475,326.5311911928853 30.216269145682475,327.23541650716123 30.216269145682475,327.23541650716123 30.216269145682475,327.23541650716123 29.512043831406512,327.93964182143725 29.512043831406512,327.93964182143725 29.512043831406512,327.93964182143725 29.512043831406512,327.93964182143725 29.512043831406512,328.6438671357132 29.512043831406512,328.6438671357132 29.512043831406512,328.6438671357132 29.512043831406512,328.6438671357132 30.216269145682475,329.34809244998917 30.216269145682475,329.34809244998917 30.920494459958462,329.34809244998917 30.920494459958462,330.0523177642651 31.624719774234418,330.0523177642651 32.32894508851038,330.7565430785411 33.73739571706233,331.46076839281704 35.850071659890205,332.164993707093 37.25852228844215,332.869219021369 38.6669729169941,333.573444335645 40.779648859821975,334.27766964992094 42.18809948837392,334.27766964992094 43.59655011692584,334.9818949641969 45.709226059753746,335.68612027847286 47.117676688305686,335.68612027847286 49.23035263113357,336.3903455927488 51.343028573961476,337.0945709070248 53.45570451678938,337.79879622130073 54.86415514534131,338.50302153557675 56.27260577389325,339.2072468498527 58.38528171672115,339.91147216412867 59.79373234527307,339.91147216412867 60.49795765954906,340.6156974784046 61.202182973825025,341.3199227926806 61.90640828810098,341.3199227926806 62.61063360237693,342.02414810695655 63.31485891665293,342.02414810695655 63.31485891665293,342.7283734212325 64.01908423092888,342.7283734212325 64.01908423092888,342.7283734212325 64.01908423092888,343.43259873550846 64.01908423092888,343.43259873550846 64.01908423092888,343.43259873550846 64.01908423092888,343.43259873550846 64.01908423092888,344.1368240497845 63.31485891665293,344.1368240497845 62.61063360237693,344.1368240497845 61.202182973825025,344.1368240497845 60.49795765954906,344.1368240497845 59.08950703099712,344.84104936406044 57.681056402445165,345.5452746783364 56.27260577389325,345.5452746783364 55.56838045961729,345.5452746783364 54.86415514534131,345.5452746783364 54.86415514534131,345.5452746783364 54.15992983106534,345.5452746783364 54.15992983106534,346.24949999261236 53.45570451678938,346.9537253068883 53.45570451678938,346.9537253068883 53.45570451678938,346.9537253068883 53.45570451678938,346.9537253068883 53.45570451678938,346.9537253068883 53.45570451678938,346.9537253068883 53.45570451678938,347.6579506211643 53.45570451678938,347.6579506211643 53.45570451678938,347.6579506211643 53.45570451678938,347.6579506211643 53.45570451678938,348.36217593544023 53.45570451678938,348.36217593544023 53.45570451678938,349.0664012497162 53.45570451678938,349.0664012497162 53.45570451678938,349.7706265639922 53.45570451678938,349.7706265639922 53.45570451678938,350.47485187826817 53.45570451678938,351.1790771925441 53.45570451678938,351.1790771925441 53.45570451678938,351.8833025068201 53.45570451678938,351.8833025068201 53.45570451678938,351.8833025068201 52.75147920251342,351.8833025068201 52.75147920251342,351.8833025068201 52.047253888237435,351.8833025068201 52.047253888237435,351.8833025068201 51.343028573961476,352.58752782109605 50.63880325968552,352.58752782109605 49.93457794540956,353.291753135372 49.93457794540956,353.291753135372 49.23035263113357,353.291753135372 49.23035263113357,353.291753135372 49.23035263113357,353.291753135372 49.23035263113357,353.291753135372 49.23035263113357,352.58752782109605 49.23035263113357,352.58752782109605 49.23035263113357,352.58752782109605 49.23035263113357,352.58752782109605 49.23035263113357,352.58752782109605 49.93457794540956,352.58752782109605 51.343028573961476,352.58752782109605 52.75147920251342,352.58752782109605 54.15992983106534,352.58752782109605 55.56838045961729,352.58752782109605 56.97683108816921,353.291753135372 58.38528171672115,353.99597844964796 59.08950703099712,353.99597844964796 59.08950703099712,354.700203763924 59.79373234527307,354.700203763924 60.49795765954906,354.700203763924 60.49795765954906,355.40442907819994 61.202182973825025,355.40442907819994 61.202182973825025,355.40442907819994 61.90640828810098,356.1086543924759 62.61063360237693,356.1086543924759 63.31485891665293,356.81287970675186 64.72330954520484,357.5171050210278 65.4275348594808,357.5171050210278 66.13176017375679,358.2213303353038 66.83598548803275,358.2213303353038 67.5402108023087,358.92555564957974 68.94866143086062,358.92555564957974 69.65288674513658,359.6297809638557 70.3571120594126,360.3340062781317 71.06133737368856,361.03823159240767 72.46978800224048,361.03823159240767 73.17401331651644,361.7424569066836 74.58246394506835,361.7424569066836 75.99091457362033,362.44668222095953 76.69513988789629,363.15090753523555 77.39936520217225,363.15090753523555 78.80781583072417,363.8551328495115 79.51204114500013,364.55935816378746 80.9204917735521,364.55935816378746 81.62471708782806,365.2635834780635 83.03316771637998,365.2635834780635 84.4416183449319,365.9678087923395 85.85006897348381,366.6720341066154 87.25851960203579,366.6720341066154 88.66697023058771,367.37625942089136 89.37119554486367,368.0804847351674 90.07542085913963,368.0804847351674 91.48387148769156,368.7847100494433 92.18809680196757,368.7847100494433 92.89232211624352,369.48893536371924 93.59654743051948,370.19316067799514 94.30077274479544,370.19316067799514 95.00499805907138,370.19316067799514 95.00499805907138,370.89738599227115 95.70922337334737,370.89738599227115 95.70922337334737,370.89738599227115 96.41344868762332,370.89738599227115 96.41344868762332,371.60161130654717 97.11767400189927,371.60161130654717 97.11767400189927,371.60161130654717 97.82189931617529,372.30583662082313 97.82189931617529,372.30583662082313 98.52612463045125,372.30583662082313 99.2303499447272,372.30583662082313 99.2303499447272,373.0100619350991 99.2303499447272,373.0100619350991 99.93457525900318,373.0100619350991 99.93457525900318,373.0100619350991 100.63880057327913,373.0100619350991 101.34302588755509,373.71428724937505 101.34302588755509,373.71428724937505 102.04725120183105,373.71428724937505 102.04725120183105,373.71428724937505 102.04725120183105,373.71428724937505 102.75147651610699,373.71428724937505 102.75147651610699,373.71428724937505 102.75147651610699,374.418512563651 102.75147651610699,375.12273787792697 102.75147651610699,375.826963192203 102.75147651610699,376.531188506479 102.75147651610699,377.2354138207549 103.455701830383,377.93963913503086 103.455701830383,379.3480897635828 104.159927144659,380.05231507785874 104.159927144659,380.7565403921347 104.86415245893494,381.46076570641065 104.86415245893494,381.46076570641065 105.5683777732109,382.16499102068667 105.5683777732109,382.86921633496263 106.27260308748686,382.86921633496263 106.27260308748686,382.86921633496263 106.9768284017628,383.5734416492386 106.9768284017628,383.5734416492386 107.68105371603879,384.2776669635146 107.68105371603879,384.2776669635146 108.38527903031479,384.2776669635146 108.38527903031479,384.2776669635146 108.38527903031479,384.2776669635146 109.08950434459075,384.2776669635146 109.08950434459075,384.9818922777905 109.79372965886671,384.9818922777905 110.49795497314267,384.9818922777905 110.49795497314267,384.9818922777905 110.49795497314267,384.9818922777905 110.49795497314267,384.9818922777905 111.20218028741861,384.9818922777905 111.20218028741861,384.9818922777905 111.20218028741861,384.9818922777905 111.9064056016946,384.9818922777905 111.9064056016946,384.9818922777905 112.61063091597055,384.9818922777905 112.61063091597055,384.9818922777905 113.3148562302465,385.68611759206647 114.01908154452252,385.68611759206647 114.01908154452252,385.68611759206647 114.72330685879848,385.68611759206647 115.42753217307443,386.39034290634237 115.42753217307443,386.39034290634237 116.1317574873504,386.39034290634237 116.1317574873504,386.39034290634237 116.83598280162636,387.0945682206184 116.83598280162636,387.0945682206184 116.1317574873504,387.0945682206184 116.1317574873504,387.0945682206184 116.1317574873504,387.0945682206184 116.1317574873504,387.0945682206184 116.1317574873504,387.0945682206184 116.1317574873504,386.39034290634237 116.1317574873504,386.39034290634237 116.1317574873504,386.39034290634237 116.1317574873504,386.39034290634237 118.24443343017828,386.39034290634237 121.06133468728217,387.0945682206184 124.58246125866197,387.7987935348944 128.10358783004182,388.50301884917036 130.9204890871457,389.20724416344626 134.4416156585255,389.9114694777223 136.55429160135344,391.3199201062742 139.37119285845728,391.3199201062742 141.4838688012852,392.0241454205502 143.5965447441131,392.7283707348261 145.70922068694097,392.7283707348261 147.11767131549294,393.43259604910213 147.8218966297689,393.43259604910213 149.23034725832082,394.1368213633781 150.63879788687274,394.1368213633781 152.75147382970067,394.841046677654 154.1599244582526,394.841046677654 155.5683750868045,395.54527199193 156.27260040108047,395.54527199193 156.97682571535643,395.54527199193 157.68105102963244,396.24949730620597 157.68105102963244,396.24949730620597 157.68105102963244,396.24949730620597 158.3852763439084,396.24949730620597 159.08950165818436,396.24949730620597 160.49795228673628,396.24949730620597 161.20217760101224,396.24949730620597 161.9064029152882,396.95372262048187 161.9064029152882,396.95372262048187 162.61062822956416,396.95372262048187 164.7233041723921,396.95372262048187 170.35710668659982,396.95372262048187 178.10358514363543,398.3621732490339 185.14583828639513,399.7706238775858 191.48386611487882,401.17907450613774 196.41344331481056,402.5875251346896 200.63879520046635,403.99597576324163 205.56837240039815,405.4044263917935 209.79372428605393,406.81287702034547 214.7233014859857,408.22132764889744 218.9486533716415,409.62977827744936 222.4697799430213,411.0382289060012 225.99090651440116,411.74245422027724 225.99090651440116,411.74245422027724 224.5824558858492,411.74245422027724 221.76555462874535,411.74245422027724 217.5402027430896,412.4466795345532 213.31485085743378,412.4466795345532 209.08949897177797,412.4466795345532 203.45569645757024,412.4466795345532 197.11766862908655,412.4466795345532 190.07541548632685,412.4466795345532 183.0331623435672,412.4466795345532 176.6951345150835,411.0382289060012 169.65288137232386,410.3340035917253 162.61062822956416,409.62977827744936 156.97682571535643,408.22132764889744 153.45569914397663,407.5171023346214 149.93457257259678,406.81287702034547 147.11767131549294,406.1086517060695 146.41344600121693,405.4044263917935 145.70922068694097,405.4044263917935 145.004995372665,404.7002010775176 145.004995372665,404.7002010775176 145.004995372665,403.99597576324163 145.004995372665,403.99597576324163 144.30077005838905,403.2917504489656 143.5965447441131,403.2917504489656 142.89231942983713,403.2917504489656 141.4838688012852,402.5875251346896 138.66696754418132,401.8832998204137 135.85006628707748,401.17907450613774 133.0331650299736,400.47484919186184 130.21626377286975,399.7706238775858 128.10358783004182,398.3621732490339 125.99091188721394,396.95372262048187 123.878235944386,396.24949730620597 123.17401063011003,395.54527199193 121.76556000155813,395.54527199193 121.06133468728217,394.841046677654 120.35710937300621,394.841046677654 119.65288405873027,394.1368213633781 118.94865874445422,394.1368213633781 118.94865874445422,393.43259604910213 118.24443343017828,393.43259604910213 118.24443343017828,392.7283707348261 118.24443343017828,392.7283707348261 117.54020811590232,392.7283707348261 117.54020811590232,392.0241454205502 117.54020811590232,392.0241454205502 117.54020811590232,392.0241454205502 116.83598280162636,392.0241454205502 116.83598280162636,392.0241454205502 116.83598280162636,391.3199201062742 116.1317574873504,391.3199201062742 115.42753217307443,391.3199201062742 114.72330685879848,391.3199201062742 114.72330685879848,391.3199201062742 114.01908154452252,390.61569479199824 113.3148562302465,390.61569479199824 112.61063091597055,390.61569479199824 111.9064056016946,390.61569479199824 111.20218028741861,390.61569479199824 110.49795497314267,390.61569479199824 109.79372965886671,390.61569479199824 109.08950434459075,390.61569479199824 108.38527903031479,389.9114694777223 107.68105371603879,389.9114694777223 106.9768284017628,389.9114694777223 106.27260308748686,389.20724416344626 105.5683777732109,389.20724416344626 104.86415245893494,388.50301884917036 104.86415245893494,388.50301884917036 104.159927144659,387.7987935348944 104.159927144659,387.7987935348944 103.455701830383,387.0945682206184 103.455701830383,387.0945682206184 102.75147651610699,387.0945682206184 102.75147651610699,387.0945682206184 102.75147651610699,386.39034290634237 102.04725120183105,386.39034290634237 102.04725120183105,386.39034290634237 101.34302588755509,386.39034290634237 101.34302588755509,385.68611759206647 100.63880057327913,385.68611759206647 99.93457525900318,385.68611759206647 99.93457525900318,385.68611759206647 99.93457525900318,384.9818922777905 99.2303499447272,384.9818922777905 99.2303499447272,384.9818922777905 99.2303499447272,384.9818922777905 98.52612463045125,384.9818922777905 98.52612463045125,384.9818922777905 97.82189931617529,384.9818922777905 97.82189931617529,384.2776669635146 97.11767400189927,384.2776669635146 97.11767400189927,384.2776669635146 97.11767400189927,384.2776669635146 96.41344868762332,384.2776669635146 95.70922337334737,384.2776669635146 95.70922337334737,384.2776669635146 95.00499805907138,384.2776669635146 95.00499805907138,384.2776669635146 94.30077274479544,384.2776669635146 94.30077274479544,384.2776669635146 94.30077274479544,384.2776669635146 94.30077274479544,383.5734416492386 93.59654743051948,383.5734416492386 93.59654743051948,383.5734416492386 93.59654743051948,383.5734416492386 93.59654743051948,383.5734416492386 94.30077274479544,383.5734416492386 95.70922337334737,383.5734416492386 98.52612463045125,383.5734416492386 102.04725120183105,383.5734416492386 106.27260308748686,384.2776669635146 110.49795497314267,384.2776669635146 114.01908154452252,384.9818922777905 118.24443343017828,385.68611759206647 121.06133468728217,386.39034290634237 123.878235944386,387.0945682206184 126.6951372014899,387.0945682206184 128.80781314431778,387.0945682206184 130.21626377286975,387.7987935348944 131.62471440142167,387.7987935348944 133.0331650299736,387.7987935348944 133.73739034424955,387.7987935348944 135.14584097280147,387.7987935348944 135.85006628707748,387.7987935348944 136.55429160135344,387.7987935348944 136.55429160135344,387.7987935348944 137.2585169156294,387.7987935348944 137.2585169156294,387.7987935348944 137.96274222990536,387.7987935348944 137.96274222990536,388.50301884917036 137.96274222990536,388.50301884917036 137.96274222990536,389.20724416344626 137.96274222990536,389.20724416344626 137.96274222990536,389.9114694777223 137.2585169156294,389.9114694777223 135.85006628707748,389.9114694777223 134.4416156585255,389.9114694777223 133.0331650299736,389.9114694777223 130.21626377286975,389.9114694777223 128.10358783004182,389.9114694777223 125.28668657293798,389.9114694777223 121.76556000155813,389.9114694777223 118.24443343017828,389.20724416344626 115.42753217307443,388.50301884917036 112.61063091597055,387.7987935348944 109.79372965886671,387.0945682206184 107.68105371603879,385.68611759206647 105.5683777732109,384.9818922777905 104.159927144659,384.2776669635146 103.455701830383,384.2776669635146 102.75147651610699,383.5734416492386 102.04725120183105,382.86921633496263 102.04725120183105,382.86921633496263 101.34302588755509,382.86921633496263 99.93457525900318,382.86921633496263 98.52612463045125,382.86921633496263 97.11767400189927,382.86921633496263 95.70922337334737,382.86921633496263 94.30077274479544,382.86921633496263 93.59654743051948,382.86921633496263 92.89232211624352,382.86921633496263 92.18809680196757,382.86921633496263 91.48387148769156,382.86921633496263 91.48387148769156,382.86921633496263 90.77964617341559,382.86921633496263 90.07542085913963,382.86921633496263 90.07542085913963,382.86921633496263 89.37119554486367,382.86921633496263 89.37119554486367,382.86921633496263 88.66697023058771,382.86921633496263 88.66697023058771,382.86921633496263 88.66697023058771,382.86921633496263 88.66697023058771,382.86921633496263 88.66697023058771,382.86921633496263 88.66697023058771,382.86921633496263 88.66697023058771,382.86921633496263 89.37119554486367,382.86921633496263 90.07542085913963,382.16499102068667 90.77964617341559,382.16499102068667 92.89232211624352,382.16499102068667 96.41344868762332,382.16499102068667 100.63880057327913,382.16499102068667 106.9768284017628,382.16499102068667 114.01908154452252,382.16499102068667 120.35710937300621,382.86921633496263 125.28668657293798,384.2776669635146 129.51203845859374,384.9818922777905 133.0331650299736,386.39034290634237 135.14584097280147,387.0945682206184 137.2585169156294,387.7987935348944 138.66696754418132,388.50301884917036 139.37119285845728,388.50301884917036 140.07541817273324,388.50301884917036 140.7796434870092,388.50301884917036 140.7796434870092,388.50301884917036 142.18809411556117,388.50301884917036 144.30077005838905,389.20724416344626 148.52612194404486,390.61569479199824 154.1599244582526,392.7283707348261 159.79372697246032,394.841046677654 165.42752948666805,396.95372262048187 170.35710668659982,399.06639856330986 174.58245857225563,400.47484919186184 177.39935982935947,401.8832998204137 180.21626108646336,402.5875251346896 181.6247117150153,403.99597576324163 183.0331623435672,403.99597576324163 183.73738765784313,404.7002010775176 184.44161297211912,404.7002010775176 183.73738765784313,404.7002010775176 183.0331623435672,404.7002010775176 180.92048640073932,404.7002010775176 177.39935982935947,405.4044263917935 174.58245857225563,406.1086517060695 171.76555731515174,406.81287702034547 168.9486560580479,407.5171023346214 167.54020542949593,408.22132764889744 166.131754800944,408.22132764889744 165.42752948666805,408.92555296317335 164.7233041723921,408.92555296317335 164.7233041723921,409.62977827744936 164.7233041723921,409.62977827744936 164.01907885811613,410.3340035917253 164.01907885811613,410.3340035917253 164.01907885811613,411.0382289060012 164.01907885811613,411.0382289060012 163.31485354384017,411.0382289060012 163.31485354384017,411.74245422027724 162.61062822956416,412.4466795345532 161.9064029152882,412.4466795345532 161.20217760101224,413.1509048488291 160.49795228673628,413.1509048488291 159.79372697246032,413.8551301631051 158.3852763439084,413.8551301631051 157.68105102963244,414.5593554773811 156.27260040108047,414.5593554773811 155.5683750868045,414.5593554773811 154.86414977252855,414.5593554773811 154.86414977252855,414.5593554773811 154.1599244582526,414.5593554773811 153.45569914397663,415.2635807916571 153.45569914397663,415.2635807916571 153.45569914397663,415.2635807916571 153.45569914397663,415.2635807916571 152.75147382970067,415.2635807916571 152.75147382970067,415.2635807916571 152.75147382970067,415.2635807916571 152.75147382970067,415.2635807916571 152.75147382970067,415.2635807916571 152.0472485154247,415.2635807916571 151.3430232011487,415.2635807916571 151.3430232011487,415.2635807916571 150.63879788687274,415.96780610593305 149.93457257259678,415.96780610593305 149.93457257259678,415.96780610593305 149.93457257259678,415.96780610593305 149.93457257259678,416.67203142020907 149.93457257259678,416.67203142020907 149.93457257259678,416.67203142020907 149.93457257259678,416.67203142020907 149.93457257259678,416.67203142020907 149.93457257259678,416.67203142020907 149.93457257259678,416.67203142020907 150.63879788687274,416.67203142020907 150.63879788687274,417.37625673448497 150.63879788687274,417.37625673448497 151.3430232011487,417.37625673448497 152.0472485154247,418.0804820487609 152.0472485154247,418.0804820487609 152.75147382970067,418.0804820487609 153.45569914397663,418.78470736303683 154.86414977252855,418.78470736303683 155.5683750868045,419.48893267731285 156.27260040108047,419.48893267731285 156.97682571535643,420.19315799158886 158.3852763439084,420.8973833058648 159.08950165818436,420.8973833058648 159.79372697246032,421.6016086201407 161.20217760101224,421.6016086201407 161.9064029152882,422.30583393441674 162.61062822956416,423.0100592486927 163.31485354384017,423.0100592486927 164.01907885811613,423.71428456296866 164.7233041723921,423.71428456296866 165.42752948666805,424.4185098772447 166.131754800944,424.4185098772447 166.83598011521997,425.1227351915206 166.83598011521997,425.1227351915206 167.54020542949593,425.1227351915206 168.2444307437719,425.8269605057966 168.9486560580479,426.53118582007255 169.65288137232386,426.53118582007255 171.06133200087578,427.23541113434857 171.76555731515174,427.93963644862447 172.4697826294277,427.93963644862447 173.17400794370366,428.6438617629004 173.87823325797967,428.6438617629004 175.2866838865316,429.34808707717633 175.99090920080755,429.34808707717633 177.39935982935947,430.05231239145235 178.10358514363543,430.7565377057283 178.8078104579114,430.7565377057283 179.5120357721874,430.7565377057283 179.5120357721874,431.4607630200043 180.21626108646336,431.4607630200043 180.21626108646336,431.4607630200043 180.92048640073932,431.4607630200043 181.6247117150153,431.4607630200043 181.6247117150153,431.4607630200043 181.6247117150153,430.7565377057283 181.6247117150153,430.7565377057283 181.6247117150153,430.7565377057283 181.6247117150153,430.7565377057283 181.6247117150153,430.7565377057283 182.32893702929124,430.7565377057283 184.44161297211912,430.7565377057283 186.55428891494705,432.1649883342803 188.66696485777493,432.8692136485563 191.48386611487882,434.27766427710816 195.00499268625862,434.9818895913842 197.82189394336254,436.39034021993604 201.34302051474236,437.09456553421205 204.15992177184617,437.79879084848795 206.9768230289501,437.79879084848795 208.38527365750198,438.50301616276397 210.4979496003299,439.20724147703993 211.90640022888178,439.20724147703993 213.31485085743378,439.9114667913159 214.7233014859857,439.9114667913159 215.42752680026166,440.6156921055919 216.83597742881358,440.6156921055919 217.5402027430896,440.6156921055919 218.9486533716415,441.3199174198678 218.9486533716415,441.3199174198678 219.65287868591747,441.3199174198678 220.3571040001934,441.3199174198678 221.0613293144694,441.3199174198678 221.0613293144694,441.3199174198678 221.76555462874535,442.02414273414377 221.76555462874535,442.02414273414377 222.4697799430213,442.02414273414377 222.4697799430213,442.02414273414377 222.4697799430213,442.02414273414377 223.17400525729732,442.02414273414377 223.17400525729732,442.02414273414377 223.87823057157328,442.02414273414377 223.87823057157328,442.02414273414377 224.5824558858492,442.02414273414377 224.5824558858492,442.02414273414377 224.5824558858492,442.02414273414377 224.5824558858492,442.02414273414377 225.99090651440116,442.7283680484198 228.103582457229,442.7283680484198 230.92048371433293,443.4325933626958 233.0331596571608,444.1368186769717 235.14583559998874,444.84104399124766 237.25851154281662,445.54526930552356 239.37118748564455,446.2494946197996 241.48386342847243,446.2494946197996 242.89231405702435,446.95371993407554 244.3007646855763,447.65794524835155 245.0049899998523,447.65794524835155 246.4134406284042,448.3621705626275 247.82189125695612,448.3621705626275 249.23034188550804,449.0663958769035 249.934567199784,449.0663958769035 250.63879251406001,449.77062119117943 251.34301782833595,449.77062119117943 252.04724314261193,449.77062119117943 252.75146845688792,450.4748465054554 253.45569377116385,450.4748465054554 254.1599190854398,450.4748465054554 254.86414439971574,451.1790718197314 254.86414439971574,451.1790718197314 255.56836971399173,451.1790718197314 255.56836971399173,451.1790718197314 256.27259502826774,451.1790718197314 256.27259502826774,451.1790718197314 256.9768203425437,451.1790718197314 256.9768203425437,451.8832971340073 256.9768203425437,451.8832971340073 257.68104565681966,451.8832971340073 257.68104565681966,451.8832971340073 257.68104565681966,451.8832971340073 258.3852709710956,451.8832971340073 258.3852709710956,451.8832971340073 259.0894962853716,451.8832971340073 259.79372159964754,451.8832971340073 260.4979469139235,451.8832971340073 261.20217222819946,452.58752244828327 261.9063975424755,452.58752244828327 262.61062285675143,452.58752244828327 262.61062285675143,453.2917477625593 263.3148481710274,453.2917477625593 264.01907348530335,453.2917477625593 264.7232987995793,453.9959730768352 265.42752411385527,453.9959730768352 266.13174942813123,453.9959730768352 266.83597474240725,453.9959730768352 266.83597474240725,453.9959730768352 267.5402000566832,453.9959730768352 268.24442537095916,453.2917477625593 268.24442537095916,453.2917477625593 268.9486506852351,453.2917477625593 270.35710131378704,453.9959730768352 271.76555194233896,455.40442370538716 273.17400257089093,456.1086490196631 274.58245319944285,456.81287433393913 275.99090382799477,457.51709964821504 276.69512914227073,458.221324962491 277.3993544565467,458.221324962491 277.3993544565467,458.925550276767 278.1035797708227,458.925550276767 278.80780508509866,458.925550276767 279.5120303993746,458.925550276767 280.2162557136506,459.629775591043 280.92048102792654,459.629775591043 281.6247063422025,459.629775591043 282.32893165647846,459.629775591043 283.0331569707544,460.33400090531893 283.0331569707544,460.33400090531893 283.73738228503044,460.33400090531893 283.73738228503044,460.33400090531893 284.4416075993064,460.33400090531893 284.4416075993064,460.33400090531893 284.4416075993064,460.33400090531893 285.14583291358235,460.33400090531893 285.14583291358235,460.33400090531893 285.14583291358235,460.33400090531893 285.14583291358235,460.33400090531893 285.8500582278583,461.0382262195949 285.8500582278583,461.0382262195949 285.8500582278583,461.0382262195949 286.55428354213427,461.0382262195949 286.55428354213427,461.0382262195949 286.55428354213427,461.0382262195949 286.55428354213427,461.0382262195949 286.55428354213427,461.0382262195949 286.55428354213427,461.0382262195949"
     
    style="color: currentColor;"/>
</g>
</svg>