<svg version="1.1" id="Uploaded to svgrepo.com" xmlns="http://www.w3.org/2000/svg" xmlns:xlink="http://www.w3.org/1999/xlink" x="0px" y="0px"
	 width="32px" height="32px" viewBox="0 0 32 32" style="enable-background:new 0 0 32 32;" xml:space="preserve">
<style type="text/css">
	.stone_een{fill:currentColor;}
</style>
<path class="stone_een" d="M26,17c0,0.551-0.449,1-1,1s-1-0.449-1-1s0.449-1,1-1S26,16.449,26,17z M20,17c-0.551,0-1,0.449-1,1
	s0.449,1,1,1s1-0.449,1-1S20.551,17,20,17z M9,12H7v2H5v2h2v2h2v-2h2v-2H9V12z M20,12c-0.551,0-1,0.449-1,1s0.449,1,1,1s1-0.449,1-1
	S20.551,12,20,12z M25,11c-0.551,0-1,0.449-1,1s0.449,1,1,1s1-0.449,1-1S25.551,11,25,11z M32,20c0,3.86-3.14,7-7,7
	c-2.714,0-5.17-1.581-6.319-4h-5.363C12.17,25.419,9.714,27,7,27c-3.86,0-7-3.14-7-7c0-0.521,0.063-1.058,0.188-1.59l2.128-9.259
	C3.124,6.668,5.408,5,8,5c1.713,0,3.308,0.723,4.449,2h7.102C20.692,5.723,22.287,5,24,5c2.592,0,4.876,1.668,5.684,4.151
	l2.127,9.255C31.937,18.942,32,19.479,32,20z M12,14c0-0.552-0.448-1-1-1h-1v-1c0-0.552-0.448-1-1-1H7c-0.552,0-1,0.448-1,1v1H5
	c-0.552,0-1,0.448-1,1v2c0,0.552,0.448,1,1,1h1v1c0,0.552,0.448,1,1,1h2c0.552,0,1-0.448,1-1v-1h1c0.552,0,1-0.448,1-1V14z M22,18
	c0-1.105-0.895-2-2-2s-2,0.895-2,2c0,1.105,0.895,2,2,2S22,19.105,22,18z M22,13c0-1.105-0.895-2-2-2s-2,0.895-2,2
	c0,1.105,0.895,2,2,2S22,14.105,22,13z M27,17c0-1.105-0.895-2-2-2s-2,0.895-2,2c0,1.105,0.895,2,2,2S27,18.105,27,17z M27,12
	c0-1.105-0.895-2-2-2s-2,0.895-2,2c0,1.105,0.895,2,2,2S27,13.105,27,12z" fill="currentColor"/>
</svg>