<svg viewBox="0 0 16 16" xmlns="http://www.w3.org/2000/svg" fill="currentColor"><g id="SVGRepo_bgCarrier" stroke-width="0"></g><g id="SVGRepo_tracerCarrier" stroke-linecap="round" stroke-linejoin="round"></g><g id="SVGRepo_iconCarrier"> <path fill="currentColor" d="M7,2 C7.55228,2 8,2.44772 8,3 C8,3.55228 7.55228,4 7,4 L4,4 L4,12 L12,12 L12,9 C12,8.44771 12.4477,8 13,8 C13.5523,8 14,8.44771 14,9 L14,12 C14,13.1046 13.1046,14 12,14 L4,14 C2.89543,14 2,13.1046 2,12 L2,4 C2,2.89543 2.89543,2 4,2 L7,2 Z M13,0 C13.5523,0 14,0.447715 14,1 L14,2 L15,2 C15.5523,2 16,2.44772 16,3 C16,3.55228 15.5523,4 15,4 L14,4 L14,5 C14,5.55228 13.5523,6 13,6 C12.4477,6 12,5.55228 12,5 L12,4 L11,4 C10.4477,4 10,3.55228 10,3 C10,2.44772 10.4477,2 11,2 L12,2 L12,1 C12,0.447715 12.4477,0 13,0 Z"></path> </g></svg>