<?xml version="1.0" encoding="iso-8859-1"?>
<!-- Generator: Adobe Illustrator 18.0.0, SVG Export Plug-In . SVG Version: 6.00 Build 0)  -->
<!DOCTYPE svg PUBLIC "-//W3C//DTD SVG 1.1//EN" "http://www.w3.org/Graphics/SVG/1.1/DTD/svg11.dtd">
<svg version="1.1" id="Capa_1" xmlns="http://www.w3.org/2000/svg" xmlns:xlink="http://www.w3.org/1999/xlink" x="0px" y="0px"
	 viewBox="0 0 181.328 181.328" style="enable-background:new 0 0 181.328 181.328;" xml:space="preserve">
<g>
	<path d="M118.473,46.308V14.833c0-4.142-3.358-7.5-7.5-7.5H70.357c-4.142,0-7.5,3.358-7.5,7.5v31.474
		C51.621,54.767,44.34,68.214,44.34,83.331c0,25.543,20.781,46.324,46.324,46.324s46.324-20.781,46.324-46.324
		C136.988,68.215,129.708,54.769,118.473,46.308z M77.857,22.333h25.615v16.489c-4.071-1.174-8.365-1.815-12.809-1.815
		c-4.443,0-8.736,0.642-12.807,1.814V22.333z M90.664,114.655c-17.273,0-31.324-14.052-31.324-31.324
		c0-17.272,14.052-31.324,31.324-31.324s31.324,14.052,31.324,31.324C121.988,100.604,107.937,114.655,90.664,114.655z" fill="currentColor"/>
	<path d="M40.595,83.331c0-4.142-3.358-7.5-7.5-7.5H7.5c-4.142,0-7.5,3.358-7.5,7.5c0,4.142,3.358,7.5,7.5,7.5h25.595
		C37.237,90.831,40.595,87.473,40.595,83.331z" fill="currentColor"/>
	<path d="M173.828,75.831h-25.595c-4.142,0-7.5,3.358-7.5,7.5c0,4.142,3.358,7.5,7.5,7.5h25.595c4.142,0,7.5-3.358,7.5-7.5
		C181.328,79.189,177.97,75.831,173.828,75.831z" fill="currentColor"/>
	<path d="M44.654,47.926c1.464,1.465,3.384,2.197,5.303,2.197c1.919,0,3.839-0.732,5.303-2.197c2.929-2.929,2.929-7.678,0-10.606
		L37.162,19.222c-2.929-2.93-7.678-2.929-10.606,0c-2.929,2.929-2.929,7.678,0,10.606L44.654,47.926z" fill="currentColor"/>
	<path d="M136.674,118.735c-2.93-2.929-7.678-2.928-10.607,0c-2.929,2.929-2.928,7.678,0,10.607l18.1,18.098
		c1.465,1.464,3.384,2.196,5.303,2.196c1.919,0,3.839-0.732,5.304-2.197c2.929-2.929,2.928-7.678,0-10.607L136.674,118.735z" fill="currentColor"/>
	<path d="M44.654,118.736l-18.099,18.098c-2.929,2.929-2.929,7.677,0,10.607c1.464,1.465,3.384,2.197,5.303,2.197
		c1.919,0,3.839-0.732,5.303-2.197l18.099-18.098c2.929-2.929,2.929-7.677,0-10.606C52.332,115.807,47.583,115.807,44.654,118.736z" fill="currentColor"/>
	<path d="M131.371,50.123c1.919,0,3.839-0.732,5.303-2.196l18.1-18.098c2.929-2.929,2.929-7.678,0-10.607
		c-2.929-2.928-7.678-2.929-10.607-0.001l-18.1,18.098c-2.929,2.929-2.929,7.678,0,10.607
		C127.532,49.391,129.452,50.123,131.371,50.123z" fill="currentColor"/>
	<path d="M90.664,133.4c-4.142,0-7.5,3.358-7.5,7.5v25.595c0,4.142,3.358,7.5,7.5,7.5c4.142,0,7.5-3.358,7.5-7.5V140.9
		C98.164,136.758,94.806,133.4,90.664,133.4z" fill="currentColor"/>
</g>
<g>
</g>
<g>
</g>
<g>
</g>
<g>
</g>
<g>
</g>
<g>
</g>
<g>
</g>
<g>
</g>
<g>
</g>
<g>
</g>
<g>
</g>
<g>
</g>
<g>
</g>
<g>
</g>
<g>
</g>
</svg>
