<?xml version="1.0" encoding="iso-8859-1"?>
<!-- Generator: Adobe Illustrator 18.0.0, SVG Export Plug-In . SVG Version: 6.00 Build 0)  -->
<!DOCTYPE svg PUBLIC "-//W3C//DTD SVG 1.1//EN" "http://www.w3.org/Graphics/SVG/1.1/DTD/svg11.dtd">
<svg version="1.1" id="Capa_1" xmlns="http://www.w3.org/2000/svg" xmlns:xlink="http://www.w3.org/1999/xlink" x="0px" y="0px"
	 viewBox="0 0 60 60" style="enable-background:new 0 0 60 60;" xml:space="preserve">
<g>
	<path d="M35,36v24h24V36H35z M57,58H37V38h9v12.586l-4.293-4.293l-1.414,1.414L47,54.414l6.707-6.707l-1.414-1.414L48,50.586V38h9
		V58z" fill="currentColor"/>
	<path d="M38,12H18v10h20V12z M35,20H21v-2h14V20z M35,16H21v-2h14V16z" fill="currentColor"/>
	<path d="M47,0H11H1v60h10h21V33h15V0z M9,58H3V2h6V58z M40,24H16V10h24V24z" fill="currentColor"/>
</g>
<g>
</g>
<g>
</g>
<g>
</g>
<g>
</g>
<g>
</g>
<g>
</g>
<g>
</g>
<g>
</g>
<g>
</g>
<g>
</g>
<g>
</g>
<g>
</g>
<g>
</g>
<g>
</g>
<g>
</g>
</svg>
