<?xml version="1.0" encoding="iso-8859-1"?>
<!-- Generator: Adobe Illustrator 19.0.0, SVG Export Plug-In . SVG Version: 6.00 Build 0)  -->
<svg version="1.1" id="Layer_1" xmlns="http://www.w3.org/2000/svg" xmlns:xlink="http://www.w3.org/1999/xlink" x="0px" y="0px"
	 viewBox="0 0 512.002 512.002" style="enable-background:new 0 0 512.002 512.002;" xml:space="preserve">
<g>
	<g>
		<path d="M449.105,70.066c-0.154-0.752-0.376-1.491-0.669-2.196c-0.294-0.705-0.659-1.397-1.08-2.031
			c-0.423-0.634-0.916-1.245-1.456-1.785c-0.54-0.54-1.15-1.033-1.785-1.456c-0.647-0.423-1.328-0.787-2.031-1.08
			c-0.703-0.294-1.443-0.517-2.196-0.669c-1.515-0.305-3.077-0.305-4.591,0c-0.752,0.153-1.491,0.376-2.196,0.669
			c-0.705,0.294-1.386,0.658-2.03,1.08c-0.634,0.423-1.245,0.916-1.786,1.456c-0.54,0.54-1.033,1.151-1.455,1.785
			c-0.423,0.634-0.787,1.327-1.08,2.031c-0.294,0.705-0.517,1.444-0.669,2.196c-0.153,0.751-0.223,1.526-0.223,2.29
			c0,0.775,0.072,1.538,0.223,2.302c0.151,0.752,0.375,1.48,0.668,2.196c0.294,0.705,0.658,1.386,1.08,2.02
			c0.422,0.646,0.915,1.245,1.455,1.797c0.541,0.54,1.151,1.022,1.786,1.456c0.646,0.423,1.327,0.787,2.03,1.08
			c0.706,0.294,1.444,0.517,2.196,0.669c0.763,0.153,1.528,0.223,2.302,0.223c0.763,0,1.528-0.07,2.29-0.223
			c0.753-0.153,1.492-0.376,2.196-0.669c0.703-0.294,1.386-0.658,2.031-1.08c0.634-0.435,1.245-0.916,1.785-1.456
			c2.184-2.196,3.44-5.214,3.44-8.314C449.339,71.592,449.258,70.829,449.105,70.066z" fill="currentColor"/>
	</g>
</g>
<g>
	<g>
		<path d="M502.44,398.162c-0.834-17.803-8.112-34.445-19.974-46.635c6.626-9.132,10.547-20.347,10.547-32.467
			c0-1.342-0.065-2.669-0.159-3.988c5.46-32.463,8.35-71.714,8.35-113.668c0-5.93-0.257-13.622-0.38-17.319l-0.052-1.559
			c-1.595-52.456-7.669-96.994-17.564-128.797C472.116,18.077,456.768,0,437.594,0c-19.175,0-34.522,18.077-45.616,53.73
			c-9.895,31.803-15.97,76.341-17.564,128.796l-0.052,1.561c-0.123,3.697-0.38,11.388-0.38,17.319
			c0,41.954,2.89,81.203,8.35,113.664c-0.094,1.32-0.16,2.648-0.16,3.991c0,11.97,3.827,23.056,10.304,32.126
			c-13.288,13.64-20.656,32.955-19.716,53.049c1.201,25.657,14.083,38.312,24.432,48.481c11.147,10.952,17.288,16.984,11.16,37.879
			c-3.02,10.299,1.212,15.769,4.003,18.112c2.057,1.726,5.057,3.296,9.167,3.296c2.825,0,6.178-0.742,10.104-2.688
			C453.682,498.395,504.572,443.669,502.44,398.162z M397.834,184.87l0.053-1.63c3.637-119.528,28.79-159.756,39.707-159.756
			c10.916,0,36.069,40.227,39.705,159.758l0.053,1.629c0.12,3.569,0.368,10.996,0.368,16.533c0,26.898-1.212,52.594-3.551,75.936
			c-6.962-6.1-15.469-10.445-24.833-12.45V110.949c0-6.485-5.258-11.742-11.742-11.742c-6.484,0-11.742,5.257-11.742,11.742V264.89
			c-9.363,2.006-17.87,6.35-24.832,12.449c-2.339-23.34-3.551-49.036-3.551-75.936C397.467,195.866,397.716,188.44,397.834,184.87z
			 M469.529,319.059c0,9.926-4.553,18.808-11.679,24.67c-0.538,0.443-1.092,0.861-1.656,1.265c-0.196,0.141-0.392,0.284-0.592,0.422
			c-0.609,0.417-1.232,0.81-1.867,1.182c-0.16,0.094-0.322,0.187-0.483,0.278c-0.695,0.391-1.401,0.762-2.123,1.099
			c-0.081,0.039-0.164,0.074-0.247,0.112c-2.43,1.112-4.993,1.919-7.628,2.396c-0.075,0.014-0.15,0.027-0.227,0.04
			c-0.836,0.144-1.679,0.256-2.527,0.333c-0.108,0.009-0.217,0.016-0.326,0.025c-0.856,0.069-1.717,0.114-2.581,0.114
			c-0.001,0-0.001,0-0.002,0c-0.881,0-1.758-0.045-2.63-0.117c-0.1-0.008-0.201-0.014-0.301-0.022
			c-0.864-0.08-1.723-0.195-2.574-0.344c-0.07-0.012-0.141-0.025-0.21-0.038c-2.718-0.497-5.36-1.34-7.856-2.513
			c-0.011-0.005-0.02-0.009-0.031-0.014c-0.783-0.369-1.549-0.777-2.3-1.209c-0.099-0.056-0.197-0.113-0.296-0.17
			c-0.694-0.409-1.372-0.848-2.035-1.31c-0.14-0.097-0.279-0.197-0.418-0.297c-0.632-0.456-1.249-0.934-1.849-1.437
			c-6.986-5.863-11.437-14.651-11.437-24.463c0-15.932,11.727-29.174,27.002-31.553c0.035-0.006,0.07-0.012,0.106-0.018
			c0.447-0.068,0.898-0.123,1.352-0.173c0.09-0.009,0.179-0.022,0.269-0.032c0.416-0.041,0.836-0.07,1.255-0.096
			c0.117-0.007,0.235-0.019,0.353-0.025c0.525-0.026,1.053-0.04,1.585-0.04c0.005,0,0.009,0,0.014,0
			c0.537,0,1.071,0.014,1.602,0.041c0.109,0.006,0.217,0.016,0.326,0.023c0.43,0.026,0.86,0.055,1.285,0.097
			c0.081,0.008,0.161,0.02,0.241,0.028c0.463,0.05,0.924,0.107,1.381,0.176c0.026,0.004,0.053,0.009,0.079,0.013
			C457.792,289.873,469.529,303.121,469.529,319.059z M454.739,455.898c-7.424,9.666-14.643,17.21-20.59,22.616
			c0.794-21.634-10.796-33.022-20.496-42.551c-8.94-8.783-16.66-16.369-17.432-32.827c-0.649-13.857,4.454-27.076,13.614-36.119
			c0.177,0.103,0.363,0.19,0.542,0.29c0.734,0.416,1.478,0.814,2.233,1.197c0.197,0.1,0.392,0.206,0.591,0.303
			c2.05,1.009,4.173,1.888,6.356,2.642c0.116,0.04,0.234,0.08,0.351,0.119c1.073,0.363,2.158,0.696,3.259,0.993
			c0.009,0.002,0.018,0.006,0.027,0.008c2.222,0.599,4.499,1.058,6.821,1.377c0.231,0.032,0.464,0.06,0.695,0.089
			c0.887,0.11,1.779,0.198,2.677,0.267c0.279,0.021,0.559,0.047,0.838,0.065c1.114,0.067,2.235,0.112,3.364,0.112
			c0.001,0,0.002,0,0.004,0c1.117,0,2.223-0.043,3.323-0.109c0.278-0.016,0.557-0.042,0.834-0.063
			c0.881-0.066,1.757-0.151,2.626-0.258c0.238-0.029,0.476-0.059,0.714-0.09c3.429-0.466,6.757-1.247,9.958-2.312
			c0.126-0.042,0.25-0.085,0.376-0.127c0.985-0.336,1.957-0.696,2.917-1.085c0.109-0.045,0.22-0.085,0.329-0.13
			c1.043-0.431,2.073-0.887,3.082-1.377c0.154-0.074,0.303-0.159,0.456-0.234c0.77-0.384,1.532-0.784,2.283-1.202
			c0.167-0.093,0.341-0.173,0.507-0.268c8.296,8.155,13.4,19.654,13.979,32.038C479.685,414.278,470.849,434.923,454.739,455.898z"
			fill="currentColor"/>
	</g>
</g>
<g>
	<g>
		<path d="M322.002,255.995c0-17.604,5.349-34.278,15.466-48.221c15.96-21.992,21.908-49.918,16.317-76.617
			c-5.387-25.726-20.473-46.997-42.476-59.895c-30.103-17.644-64.36-26.969-99.081-26.969c-0.011,0-0.026,0-0.036,0
			C100.637,44.314,9.71,139.097,9.497,255.584c-0.107,58.374,22.052,112.781,62.397,153.2
			c37.921,37.991,87.759,58.913,140.331,58.913c34.621,0,68.798-9.275,98.835-26.824c22.11-12.917,37.272-34.236,42.693-60.032
			c5.612-26.699-0.324-54.628-16.288-76.628C327.349,290.273,322.002,273.598,322.002,255.995z M330.771,376.011
			c-4.041,19.224-15.247,35.057-31.557,44.585c-26.446,15.451-56.527,23.616-86.989,23.616c-46.291,0-90.226-18.474-123.71-52.02
			c-35.907-35.972-55.629-84.473-55.533-136.565C33.171,152.064,113.566,67.796,212.196,67.78c0.011,0,0.021,0,0.032,0
			c30.549,0,60.705,8.211,87.206,23.745c16.214,9.503,27.353,25.289,31.365,44.447c4.234,20.224-0.262,41.367-12.339,58.009
			c-13.046,17.979-19.942,39.423-19.942,62.015c0,22.59,6.895,44.034,19.94,62.011C330.534,334.648,335.021,355.789,330.771,376.011
			z" fill="currentColor"/>
	</g>
</g>
<g>
	<g>
		<path d="M298.33,328.351c-15.241-21.005-23.298-46.026-23.298-72.356c0-13.956,2.255-27.578,6.701-40.49
			c2.111-6.132-1.147-12.815-7.279-14.926c-6.131-2.111-12.814,1.147-14.926,7.279c-5.296,15.378-7.981,31.573-7.981,48.138
			c0,31.317,9.604,61.106,27.774,86.148c2.297,3.166,5.879,4.846,9.514,4.846c2.391,0,4.805-0.728,6.887-2.239
			C300.971,340.942,302.138,333.6,298.33,328.351z" fill="currentColor"/>
	</g>
</g>
<g>
	<g>
		<path d="M297.358,168.66l-0.214-0.214c-4.578-4.594-12.015-4.601-16.606-0.022c-4.591,4.58-4.602,12.014-0.022,16.606l0.214,0.214
			c2.293,2.3,5.304,3.45,8.314,3.45c3,0,6-1.143,8.292-3.428C301.927,180.686,301.938,173.252,297.358,168.66z" fill="currentColor"/>
	</g>
</g>
<g>
	<g>
		<path d="M98.495,203.392c-29.006,0-52.604,23.599-52.604,52.604s23.599,52.604,52.604,52.604
			c29.005,0,52.604-23.598,52.604-52.604S127.502,203.392,98.495,203.392z M98.497,285.115c-16.057,0-29.119-13.063-29.119-29.119
			s13.063-29.119,29.119-29.119s29.119,13.063,29.119,29.119S114.552,285.115,98.497,285.115z" fill="currentColor"/>
	</g>
</g>
<g>
	<g>
		<path d="M212.465,330.159c-20.509-20.509-53.882-20.509-74.393-0.001c-9.935,9.935-15.407,23.145-15.407,37.196
			c0,14.051,5.472,27.261,15.407,37.196c9.935,9.935,23.146,15.408,37.196,15.408s27.261-5.472,37.196-15.407
			C232.974,384.042,232.974,350.67,212.465,330.159z M195.859,387.945c-5.5,5.5-12.812,8.53-20.59,8.53
			c-7.778,0-15.09-3.03-20.59-8.53c-5.5-5.5-8.529-12.812-8.529-20.59c0-7.778,3.03-15.09,8.53-20.59
			c5.676-5.677,13.133-8.514,20.59-8.514c7.456,0,14.914,2.838,20.59,8.514C207.213,358.119,207.213,376.592,195.859,387.945z" fill="currentColor"/>
	</g>
</g>
<g>
	<g>
		<path d="M212.466,107.44c-20.51-20.51-53.884-20.509-74.394-0.001c-20.51,20.51-20.51,53.884,0,74.394
			c10.255,10.255,23.726,15.383,37.196,15.383s26.942-5.128,37.198-15.383C232.975,161.322,232.975,127.95,212.466,107.44z
			 M195.86,165.225c-11.354,11.354-29.827,11.354-41.181,0c-11.354-11.353-11.354-29.827,0-41.181
			c5.676-5.677,13.133-8.514,20.59-8.514c7.455,0,14.914,2.838,20.59,8.514C207.213,135.398,207.213,153.873,195.86,165.225z" fill="currentColor"/>
	</g>
</g>
<g>
</g>
<g>
</g>
<g>
</g>
<g>
</g>
<g>
</g>
<g>
</g>
<g>
</g>
<g>
</g>
<g>
</g>
<g>
</g>
<g>
</g>
<g>
</g>
<g>
</g>
<g>
</g>
<g>
</g>
</svg>
