<?xml version="1.0" encoding="iso-8859-1"?>
<!-- Generator: Adobe Illustrator 19.0.0, SVG Export Plug-In . SVG Version: 6.00 Build 0)  -->
<svg version="1.1" id="Layer_1" xmlns="http://www.w3.org/2000/svg" xmlns:xlink="http://www.w3.org/1999/xlink" x="0px" y="0px"
	 viewBox="0 0 511.997 511.997" style="enable-background:new 0 0 511.997 511.997;" xml:space="preserve">
<g>
	<g>
		<path d="M398.677,33.196l-22.636-19.698c-4.693-4.083-12.054-1.89-13.743,4.101l-15.821,56.13h-19.074
			c-3.496,0-6.214,3.054-5.804,6.528l2.439,20.681c6.878,0.001,13.85,1.693,20.29,5.269c17.884,9.935,25.638,31.031,19.415,49.763
			h8.587c2.963,0,5.457-2.217,5.804-5.16l8.318-70.553c0.41-3.471-2.305-6.528-5.804-6.528h-16.531L375.004,35.1l12.528,10.903
			c3.538,3.077,8.9,2.706,11.975-0.831C402.586,41.635,402.212,36.273,398.677,33.196z" fill="currentColor"/>
	</g>
</g>
<g>
	<g>
		<path d="M506.701,378.748l-98.466-124.699c-8.134-10.301-22.918-12.405-33.604-4.786l-45.663,32.562l-23.991-28.197
			c-5.329,2.707-11.472,3.664-17.453,2.557l-80.53-15.022l78.835-6.277c6.846-0.545,12.965-4.482,16.3-10.485l39.791-71.629
			c5.5-9.901,1.933-22.387-7.969-27.887c-9.901-5.5-22.388-1.933-27.887,7.969l-34.452,62.016l-67.874,5.404l42.819-15.307
			l-4.519-5.312c-10.944-12.863-30.244-14.418-43.107-3.474l-39.63,33.719c-6.495,5.526-10.386,13.512-10.737,22.031
			c-0.351,8.52,2.871,16.799,8.889,22.839l106.838,107.254c5.533,5.554,13.266,8.329,21.067,7.559
			c6.087-0.601,11.705-3.317,15.946-7.579c0.016-0.011,0.031-0.019,0.047-0.03l82.779-59.03l83.942,106.306
			c8.428,10.672,23.904,12.483,34.567,4.064C513.305,404.891,515.124,389.415,506.701,378.748z" fill="currentColor"/>
	</g>
</g>
<g>
	<g>
		<circle cx="156.344" cy="118.193" r="45.267" fill="currentColor"/>
	</g>
</g>
<g>
	<g>
		<path d="M396.186,334.674c-5.978-7.225-16.679-8.239-23.902-2.26l-88.846,73.507L110.795,233.278
			c7.739,1.651,15.427-0.794,20.747-6.114c8.839-8.84,8.84-23.171,0-32.011l-57.63-57.631c-8.841-8.84-23.171-8.839-32.012,0
			c-5.633,5.634-7.66,13.495-6.114,20.747l-6.806-6.806c-6.629-6.63-17.379-6.63-24.008,0c-6.63,6.63-6.63,17.379,0,24.008
			l252.19,252.19l-51.813,42.868c-7.223,5.977-8.236,16.679-2.26,23.902c5.981,7.228,16.684,8.232,23.902,2.259l54.285-44.912
			l43.836,43.836c6.628,6.629,17.379,6.63,24.008,0c6.63-6.63,6.63-17.379,0-24.008l-41.569-41.569l86.374-71.462
			C401.15,352.599,402.162,341.897,396.186,334.674z" fill="currentColor"/>
	</g>
</g>
<g>
</g>
<g>
</g>
<g>
</g>
<g>
</g>
<g>
</g>
<g>
</g>
<g>
</g>
<g>
</g>
<g>
</g>
<g>
</g>
<g>
</g>
<g>
</g>
<g>
</g>
<g>
</g>
<g>
</g>
</svg>
