<?xml version="1.0" encoding="iso-8859-1"?>
<!-- Generator: Adobe Illustrator 17.1.0, SVG Export Plug-In . SVG Version: 6.00 Build 0)  -->
<!DOCTYPE svg PUBLIC "-//W3C//DTD SVG 1.1//EN" "http://www.w3.org/Graphics/SVG/1.1/DTD/svg11.dtd">
<svg version="1.1" id="Capa_1" xmlns="http://www.w3.org/2000/svg" xmlns:xlink="http://www.w3.org/1999/xlink" x="0px" y="0px"
	 viewBox="0 0 412.336 412.336" style="enable-background:new 0 0 412.336 412.336;" xml:space="preserve">
<path id="XMLID_139_" d="M48.66,281.414c3.451-2.76,4.013-7.794,1.254-11.244c-22.099-27.643-34.093-62.224-33.912-97.636
	c46.001,9.121,99.416,13.925,155.173,13.925c36.097,0,71.221-2.015,103.986-5.911c0.064,2.444,0.071,4.894,0.02,7.352
	c-0.144,6.75-0.724,13.528-1.727,20.147c-0.661,4.368,2.344,8.445,6.712,9.107c4.37,0.664,8.446-2.344,9.108-6.712
	c1.104-7.298,1.745-14.768,1.902-22.204c0.069-3.264,0.044-6.521-0.072-9.761c12.147-1.715,23.921-3.698,35.246-5.943
	c0.007,1.355-0.005,2.714-0.033,4.076c-0.144,6.757-0.724,13.535-1.727,20.146c-0.662,4.369,2.343,8.446,6.711,9.108
	c4.38,0.674,8.447-2.343,9.109-6.71c1.104-7.29,1.745-14.761,1.902-22.205C344.304,82.583,269.153,4.191,174.789,2.2
	C80.469,0.172,2.029,75.359,0.038,169.725c-0.844,40.011,12.431,79.23,37.378,110.436c1.58,1.977,3.906,3.005,6.254,3.005
	C45.422,283.165,47.185,282.593,48.66,281.414z M299.227,85.785c14.104,20.568,23.378,44.671,26.209,70.616
	c-11.43,2.313-23.341,4.351-35.657,6.106c-3.378-25.897-12.632-50.542-26.854-72.116C275.375,89.114,287.515,87.575,299.227,85.785z
	 M174.451,18.196c45.331,0.957,85.771,21.363,113.507,53.065c-11.689,1.629-23.775,3.009-36.138,4.13
	c-9.119-11.008-19.68-20.953-31.528-29.528c-3.582-2.593-8.582-1.788-11.171,1.79c-2.591,3.579-1.789,8.581,1.79,11.171
	c7.553,5.467,14.528,11.547,20.878,18.144c-19.818,1.325-40.17,2.004-60.614,2.004c-40.444,0-80.509-2.655-116.787-7.71
	C83.586,37.909,126.787,17.198,174.451,18.196z M43.112,85.784c39.349,6.016,83.503,9.188,128.063,9.188
	c24.839,0,49.564-0.987,73.4-2.903c15.73,21.179,25.899,46.133,29.34,72.519c-32.312,3.871-67.021,5.873-102.74,5.873
	c-55.627,0-108.783-4.853-154.255-14.059C19.759,130.363,29.043,106.294,43.112,85.784z M384.02,287.343h-1.829v-40.353
	c0-14.254-11.597-25.851-25.852-25.851c-6.916,0-13.206,2.729-17.85,7.169c-4.644-4.439-10.935-7.169-17.852-7.169
	c-14.255,0-25.852,11.597-25.852,25.851v40.353H158.461v-40.353c0-14.254-11.597-25.851-25.851-25.851
	c-6.917,0-13.208,2.73-17.853,7.17c-4.644-4.439-10.935-7.17-17.851-7.17c-14.254,0-25.85,11.597-25.85,25.851v40.353h-1.832
	c-15.613,0-28.316,12.702-28.316,28.315s12.703,28.316,28.316,28.316h1.832v40.351c0,14.254,11.596,25.851,25.85,25.851
	c6.916,0,13.207-2.73,17.851-7.17c4.645,4.439,10.936,7.17,17.853,7.17c14.254,0,25.851-11.597,25.851-25.851v-40.351h136.326
	v40.351c0,14.254,11.597,25.851,25.852,25.851c6.917,0,13.208-2.729,17.852-7.169c4.644,4.439,10.934,7.169,17.85,7.169
	c14.255,0,25.852-11.597,25.852-25.851v-40.351h1.829c15.613,0,28.315-12.703,28.315-28.316S399.634,287.343,384.02,287.343z
	 M71.057,327.975h-1.832c-6.791,0-12.316-5.525-12.316-12.316s5.525-12.315,12.316-12.315h1.832V327.975z M106.758,384.326
	c0,5.432-4.419,9.851-9.851,9.851c-5.431,0-9.85-4.419-9.85-9.851v-48.351v-88.984c0-5.432,4.419-9.851,9.85-9.851
	c5.432,0,9.851,4.419,9.851,9.851V384.326z M142.461,384.326c0,5.432-4.419,9.851-9.851,9.851c-5.433,0-9.853-4.419-9.853-9.851
	V246.991c0-5.432,4.42-9.851,9.853-9.851c5.432,0,9.851,4.419,9.851,9.851V384.326z M294.787,327.975H158.461v-24.632h136.326
	V327.975z M330.491,384.326c0,5.432-4.42,9.851-9.853,9.851s-9.852-4.419-9.852-9.851v-48.351v-88.984
	c0-5.432,4.419-9.851,9.852-9.851s9.853,4.419,9.853,9.851V384.326z M366.191,384.326c0,5.432-4.419,9.851-9.852,9.851
	c-5.431,0-9.849-4.419-9.849-9.851V246.991c0-5.432,4.418-9.851,9.849-9.851c5.433,0,9.852,4.419,9.852,9.851V384.326z
	 M384.02,327.975h-1.829v-24.632h1.829c6.791,0,12.315,5.524,12.315,12.315S390.811,327.975,384.02,327.975z" fill="currentColor"/>
<g>
</g>
<g>
</g>
<g>
</g>
<g>
</g>
<g>
</g>
<g>
</g>
<g>
</g>
<g>
</g>
<g>
</g>
<g>
</g>
<g>
</g>
<g>
</g>
<g>
</g>
<g>
</g>
<g>
</g>
</svg>
