<?xml version="1.0" encoding="utf-8"?>
<!-- Uploaded to SVGRepo https://www.svgrepo.com -->
<svg version="1.2" baseProfile="tiny" id="Layer_1" xmlns="http://www.w3.org/2000/svg" xmlns:xlink="http://www.w3.org/1999/xlink"
	 x="0px" y="0px" viewBox="-63 65 128 128" xml:space="preserve">
<path d="M-11.2,90.3C-1.7,90.3,6,98,6,107.5s-7.6,17.2-17.1,17.2c-9.5,0-17.2-7.6-17.2-17.1S-20.7,90.4-11.2,90.3z M42.4,110.6
	l-2.5,8.2l-12.6-4.2l-14,43l-18.6,0.3L-25,124.8c-1.4-2.6-4.4-4-7.8-4c-0.4,0-3.2,0.7-3.6,0.8c-14.5,4.7-25.9,27.6-25.9,51.2
	c0,2.1,0,4,0,6h39.9v-11.6l-15-25.5c-0.5-1-0.1-2.4,0.7-3c1-0.5,2.4-0.1,3,0.7l17.2,29.5c1.3,2.2,3.6,3.7,6.5,3.7l24.6-0.1
	c3.2,0,5.9-2.1,7-4.9l26.6,8.7l16.3-49.6L42.4,110.6z M46.3,172.9l-24.3-8c0-3.5-2.6-6.5-5.9-7.2l12.9-39.5l31.7,10.4L46.3,172.9z"
	fill="currentColor"/>
</svg>
