<?xml version="1.0" encoding="iso-8859-1"?>
<!-- Generator: Adobe Illustrator 19.0.0, SVG Export Plug-In . SVG Version: 6.00 Build 0)  -->
<svg version="1.1" id="Capa_1" xmlns="http://www.w3.org/2000/svg" xmlns:xlink="http://www.w3.org/1999/xlink" x="0px" y="0px"
	 viewBox="0 0 59 59" style="enable-background:new 0 0 59 59;" xml:space="preserve">
<g>
	<path d="M52.5,6H38.456c-0.11-1.25-0.495-3.358-1.813-4.711C35.809,0.434,34.751,0,33.499,0H23.5c-1.252,0-2.31,0.434-3.144,1.289
		C19.038,2.642,18.653,4.75,18.543,6H6.5c-0.552,0-1,0.447-1,1s0.448,1,1,1h46c0.552,0,1-0.447,1-1S53.052,6,52.5,6z M20.553,6
		c0.112-1.048,0.435-2.496,1.24-3.319C22.24,2.223,22.799,2,23.5,2h9.999c0.701,0,1.26,0.223,1.708,0.681
		c0.805,0.823,1.128,2.271,1.24,3.319H20.553z" fill="currentColor"/>
	<path d="M10.456,54.021C10.493,55.743,11.565,59,15.364,59h28.272c3.799,0,4.871-3.257,4.907-4.958L50.376,10H8.624L10.456,54.021z
		 M17.5,42h24c0.552,0,1,0.447,1,1s-0.448,1-1,1h-24c-0.552,0-1-0.447-1-1S16.948,42,17.5,42z M17.5,47h24c0.552,0,1,0.447,1,1
		s-0.448,1-1,1h-24c-0.552,0-1-0.447-1-1S16.948,47,17.5,47z M17.5,52h24c0.552,0,1,0.447,1,1s-0.448,1-1,1h-24
		c-0.552,0-1-0.447-1-1S16.948,52,17.5,52z" fill="currentColor"/>
</g>
<g>
</g>
<g>
</g>
<g>
</g>
<g>
</g>
<g>
</g>
<g>
</g>
<g>
</g>
<g>
</g>
<g>
</g>
<g>
</g>
<g>
</g>
<g>
</g>
<g>
</g>
<g>
</g>
<g>
</g>
</svg>
