<?xml version="1.0" encoding="iso-8859-1"?>
<!-- Generator: Adobe Illustrator 16.0.0, SVG Export Plug-In . SVG Version: 6.00 Build 0)  -->
<!DOCTYPE svg PUBLIC "-//W3C//DTD SVG 1.1//EN" "http://www.w3.org/Graphics/SVG/1.1/DTD/svg11.dtd">
<svg version="1.1" id="Capa_1" xmlns="http://www.w3.org/2000/svg" xmlns:xlink="http://www.w3.org/1999/xlink" x="0px" y="0px"
	 width="410.454px" height="410.453px" viewBox="0 0 410.454 410.453" style="enable-background:new 0 0 410.454 410.453;"
	 xml:space="preserve">
<g>
	<g>
		<path d="M326.638,0c-40.109,0-72.74,32.631-72.74,72.74c0,40.109,32.631,72.74,72.74,72.74c40.108,0,72.74-32.631,72.74-72.74
			C399.378,32.631,366.748,0,326.638,0z M326.638,129.172c-31.117,0-56.432-25.315-56.432-56.432
			c0-31.117,25.313-56.432,56.432-56.432c31.115,0,56.432,25.315,56.432,56.432C383.07,103.856,357.753,129.172,326.638,129.172z" 			fill="currentColor" 
/>
		<path d="M326.585,27.186c-4.105,0-7.431,3.327-7.431,7.426v30.697h-19.312c-4.094,0-7.42,3.327-7.42,7.431
			c0,4.099,3.326,7.426,7.42,7.426h26.742c4.104,0,7.432-3.327,7.432-7.426V34.612C334.017,30.513,330.691,27.186,326.585,27.186z"
			 			fill="currentColor" />
		<path d="M71.271,76.573c4.443,7.698,9.973,14.928,16.916,20.542c5.49,4.44,11.951,7.854,18.965,9.014c0,0,10.09,1.73,19.494-3.08
			c5.305-2.713,10.484-7.556,13.502-13.271c3.285-6.218,4.451-13.345,4.201-20.322c-0.314-8.788-2.764-17.417-6.234-25.454
			c-3.049-7.056-6.871-14.052-12.645-19.262c-4.688-4.229-10.535-6.846-16.859-7.217c-7.674-0.448-15.244,2.099-22.027,5.479
			c-6.945,3.462-13.734,8.036-18.197,14.517c-3.607,5.237-5.201,11.468-4.703,17.798C64.283,62.926,67.501,70.043,71.271,76.573z" 			fill="currentColor" 
/>
		<path d="M328.138,179.852c-2.49-4.373-8.053-5.899-12.428-3.408l-23.056,13.129l-2.996-5.264
			c-2.446-4.297-6.998-6.66-11.627-6.539c-0.42-1.482-1.006-2.939-1.812-4.333c-0.945-1.633-15.291-24.169-28.904-41.609
			c-25.075-32.124-75.488-32.59-81.158-32.59c-1.51,0-13.094,0.49-16.494,0.569c-0.93,0.021-1.816,0.024-2.66,0.015l75.387-26.79
			c0.471-0.167,0.826-0.556,0.951-1.039l4.014-15.561c0.104-0.405,0.035-0.836-0.192-1.188s-0.59-0.593-1.002-0.665l-20.922-3.629
			c-0.406-0.069-0.816,0.029-1.146,0.271l-65.104,47.97c-0.91-0.158-1.535-0.319-1.824-0.447c-0.295-0.131-0.637-0.11-0.916,0.055
			c-0.279,0.166-0.459,0.456-0.486,0.779l-1.164,14.423l-0.127,1.005c-0.039,0.312-0.223,0.587-0.496,0.743l-2.484,1.42
			c-0.154,0.088-0.324,0.132-0.496,0.132c-0.223,0-0.445-0.075-0.629-0.222l-10.332-8.637c-0.232-0.194-0.539-0.273-0.838-0.212
			c-0.299,0.06-0.553,0.251-0.691,0.521c-0.057,0.11-5.82,11.139-17.383,24.145c-0.053,0.058-0.082,0.125-0.117,0.191
			C86.132,149.67,61.843,169.467,27.47,175.3c-10.293,1.747-17.613,10.9-16.227,21.25c1.273,9.496,9.389,16.395,18.715,16.395
			c0.836,0,1.682-0.057,2.535-0.17c35.443-4.75,61.768-23.017,78.355-38.604l18.707,74.027c0.76,2.559,1.777,4.991,3.006,7.286
			l-40.709,49.849c-3.426,4.192-5.297,9.44-5.297,14.856v66.775c0,12.973,10.516,23.488,23.488,23.488
			c12.971,0,23.488-10.516,23.488-23.488v-58.402l41.221-50.471c2.338-0.129,4.691-0.439,7.045-0.922l35.182,63.408
			c2.465,4.441,6.306,7.967,10.943,10.043l49.448,22.195c3.38,1.5,7.107,3.152,12.017,3.152c1.396,0,2.893-0.135,4.5-0.443
			c12.736-2.457,21.07-14.775,18.613-27.512c-1.563-8.104-7.115-14.426-14.23-17.318c-3.529-1.543-23.184-10.438-44.014-19.756
			l-38.154-68.769c0.636-5.019,0.269-10.228-1.266-15.397l-22.31-86.169c9.678,2.783,19.386,7.313,24.984,14.488
			c12.008,15.383,25.769,36.907,25.986,37.286c0.791,1.367,1.733,2.59,2.785,3.678c-2.291,3.877-2.513,8.84-0.127,13.027
			l2.997,5.265l-23.055,13.129c-4.373,2.489-5.897,8.055-3.41,12.426l35.33,62.039c2.492,4.373,8.057,5.899,12.43,3.408
			l89.611-51.035c4.373-2.488,5.898-8.054,3.41-12.426L328.138,179.852z M259.169,208.645l-2.998-5.265
			c-0.365-0.645-0.164-1.436,0.422-1.861c1.08,0.191,2.178,0.295,3.283,0.295c3.213,0,6.473-0.818,9.452-2.545
			c3.941-2.281,6.75-5.77,8.23-9.726l0.119-0.067c0.688-0.394,1.572-0.152,1.965,0.539l2.998,5.263L259.169,208.645z"
			fill="currentColor" 
			/>
	</g>
</g>
<g>
</g>
<g>
</g>
<g>
</g>
<g>
</g>
<g>
</g>
<g>
</g>
<g>
</g>
<g>
</g>
<g>
</g>
<g>
</g>
<g>
</g>
<g>
</g>
<g>
</g>
<g>
</g>
<g>
</g>
</svg>
